<?xml version="1.0" encoding="UTF-8" standalone="no"?>
<!-- Created with Inkscape (http://www.inkscape.org/) -->

<svg
   xmlns:dc="http://purl.org/dc/elements/1.1/"
   xmlns:cc="http://creativecommons.org/ns#"
   xmlns:rdf="http://www.w3.org/1999/02/22-rdf-syntax-ns#"
   xmlns:svg="http://www.w3.org/2000/svg"
   xmlns="http://www.w3.org/2000/svg"
   xmlns:xlink="http://www.w3.org/1999/xlink"
   xmlns:sodipodi="http://sodipodi.sourceforge.net/DTD/sodipodi-0.dtd"
   xmlns:inkscape="http://www.inkscape.org/namespaces/inkscape"
   width="28.747"
   height="28.747"
   viewBox="0 0 7.6059768 7.6059772"
   version="1.1"
   id="svg4651"
   inkscape:version="0.92.4 5da689c313, 2019-01-14"
   sodipodi:docname="ultramarine-wallet.svg">
  <defs
     id="defs4645">
    <path
       d="M33.601,21.437c0,0.199,0,0.398-0.001,0.597c-0.001,0.168-0.003,0.335-0.008,0.503      c-0.01,0.365-0.032,0.733-0.097,1.094c-0.067,0.367-0.176,0.708-0.347,1.041c-0.169,0.327-0.389,0.627-0.652,0.886      c-0.263,0.26-0.566,0.477-0.898,0.644c-0.337,0.169-0.683,0.277-1.054,0.343c-0.366,0.065-0.739,0.086-1.109,0.096      c-0.17,0.005-0.34,0.006-0.509,0.007c-0.202,0.001-0.403,0.001-0.605,0.001l-0.168,0H15.155l-2.316,0      c-0.202,0-0.403,0-0.605-0.001c-0.17-0.001-0.34-0.003-0.509-0.007c-0.37-0.01-0.743-0.031-1.109-0.096      c-0.371-0.066-0.717-0.173-1.054-0.343c-0.331-0.167-0.635-0.384-0.898-0.644c-0.263-0.26-0.483-0.559-0.652-0.886      c-0.172-0.333-0.281-0.674-0.347-1.041C7.6,23.27,7.578,22.902,7.568,22.537c-0.005-0.168-0.007-0.335-0.008-0.503      c-0.001-0.199-0.001-0.398-0.001-0.597l0-2.286v-6.999l0-1.459c0-0.127,0-0.254,0.001-0.381      c0.001-0.107,0.002-0.214,0.005-0.321c0.006-0.233,0.02-0.468,0.062-0.698c0.043-0.234,0.112-0.452,0.222-0.664      c0.108-0.209,0.248-0.4,0.416-0.565c0.168-0.166,0.361-0.305,0.573-0.411C9.052,7.544,9.273,7.475,9.51,7.433      c0.233-0.041,0.472-0.055,0.708-0.061c0.108-0.003,0.217-0.004,0.325-0.005c0.129-0.001,0.257-0.001,0.386-0.001l1.478,0h17.722      l-1.373,0.001l1.478-0.001c0.129,0,0.257,0,0.386,0.001c0.108,0.001,0.217,0.002,0.325,0.005      c0.236,0.006,0.474,0.02,0.708,0.061c0.237,0.042,0.457,0.111,0.672,0.219c0.211,0.106,0.405,0.245,0.573,0.411      c0.168,0.166,0.308,0.357,0.416,0.565c0.11,0.213,0.179,0.43,0.222,0.664c0.042,0.23,0.056,0.465,0.062,0.698      c0.003,0.107,0.004,0.214,0.005,0.321c0.001,0.127,0.001,0.254,0.001,0.381l0,1.459v6.999L33.601,21.437z"
       id="SVGID_1_" />
    <path
       d="M8.644,20.764V11.55l0-0.936c0-0.082,0-0.163,0-0.245c0-0.069,0.001-0.137,0.003-0.206       c0.004-0.15,0.013-0.3,0.039-0.448c0.027-0.15,0.071-0.29,0.141-0.426c0.068-0.134,0.157-0.257,0.264-0.363       C9.198,8.82,9.321,8.731,9.455,8.663c0.136-0.069,0.276-0.113,0.427-0.14c0.148-0.027,0.299-0.035,0.449-0.039       c0.069-0.002,0.137-0.003,0.206-0.003c0.082,0,0.163,0,0.245,0l0.937,0h18.592l-0.869,0l0.937,0c0.082,0,0.163,0,0.245,0       c0.069,0,0.137,0.001,0.206,0.003c0.15,0.004,0.301,0.013,0.449,0.039c0.15,0.027,0.29,0.071,0.427,0.14       c0.134,0.068,0.257,0.157,0.363,0.264c0.106,0.106,0.196,0.229,0.264,0.363c0.07,0.136,0.114,0.276,0.141,0.426       c0.027,0.148,0.035,0.299,0.039,0.448c0.002,0.069,0.003,0.137,0.003,0.206c0,0.082,0,0.163,0,0.245l0,0.936v9.214H8.644z"
       id="blue_1_" />
    <defs
       id="defs839">
      <path
         d="m 33.601,21.437 c 0,0.199 0,0.398 -10e-4,0.597 -0.001,0.168 -0.003,0.335 -0.008,0.503 -0.01,0.365 -0.032,0.733 -0.097,1.094 -0.067,0.367 -0.176,0.708 -0.347,1.041 -0.169,0.327 -0.389,0.627 -0.652,0.886 -0.263,0.26 -0.566,0.477 -0.898,0.644 -0.337,0.169 -0.683,0.277 -1.054,0.343 -0.366,0.065 -0.739,0.086 -1.109,0.096 -0.17,0.005 -0.34,0.006 -0.509,0.007 -0.202,0.001 -0.403,0.001 -0.605,0.001 H 28.153 15.155 12.839 c -0.202,0 -0.403,0 -0.605,-0.001 -0.17,-0.001 -0.34,-0.003 -0.509,-0.007 -0.37,-0.01 -0.743,-0.031 -1.109,-0.096 C 10.245,26.479 9.899,26.372 9.562,26.202 9.231,26.035 8.927,25.818 8.664,25.558 8.401,25.298 8.181,24.999 8.012,24.672 7.84,24.339 7.731,23.998 7.665,23.631 7.6,23.27 7.578,22.902 7.568,22.537 7.563,22.369 7.561,22.202 7.56,22.034 7.559,21.835 7.559,21.636 7.559,21.437 v -2.286 -6.999 -1.459 c 0,-0.127 0,-0.254 10e-4,-0.381 C 7.561,10.205 7.562,10.098 7.565,9.991 7.571,9.758 7.585,9.523 7.627,9.293 7.67,9.059 7.739,8.841 7.849,8.629 7.957,8.42 8.097,8.229 8.265,8.064 8.433,7.898 8.626,7.759 8.838,7.653 9.052,7.544 9.273,7.475 9.51,7.433 9.743,7.392 9.982,7.378 10.218,7.372 10.326,7.369 10.435,7.368 10.543,7.367 10.672,7.366 10.8,7.366 10.929,7.366 h 1.478 17.722 l -1.373,0.001 1.478,-0.001 c 0.129,0 0.257,0 0.386,0.001 0.108,0.001 0.217,0.002 0.325,0.005 0.236,0.006 0.474,0.02 0.708,0.061 0.237,0.042 0.457,0.111 0.672,0.219 0.211,0.106 0.405,0.245 0.573,0.411 0.168,0.166 0.308,0.357 0.416,0.565 0.11,0.213 0.179,0.43 0.222,0.664 0.042,0.23 0.056,0.465 0.062,0.698 0.003,0.107 0.004,0.214 0.005,0.321 10e-4,0.127 10e-4,0.254 10e-4,0.381 v 1.459 6.999 z"
         id="path937"
         inkscape:connector-curvature="0" />
    </defs>
    <clipPath
       id="SVGID_2_">
      <use
         id="use841"
         style="overflow:visible"
         xlink:href="#SVGID_1_"
         x="0"
         y="0"
         width="100%"
         height="100%" />
    </clipPath>
    <linearGradient
       y2="18.348499"
       x2="20.580601"
       y1="16.4079"
       x1="20.580601"
       gradientUnits="userSpaceOnUse"
       id="SVGID_3_">
      <stop
         id="stop845"
         style="stop-color:#D3D1C8"
         offset="0.0038" />
      <stop
         id="stop847"
         style="stop-color:#C4C3BB"
         offset="0.2318" />
      <stop
         id="stop849"
         style="stop-color:#A5A59F"
         offset="0.6887" />
      <stop
         id="stop851"
         style="stop-color:#8C8D88"
         offset="1" />
    </linearGradient>
    <clipPath
       id="SVGID_2_-5">
      <use
         id="use841-3"
         style="overflow:visible"
         xlink:href="#SVGID_1_"
         x="0"
         y="0"
         width="100%"
         height="100%" />
    </clipPath>
    <clipPath
       id="SVGID_2_-5-6">
      <use
         id="use841-3-2"
         style="overflow:visible"
         xlink:href="#SVGID_1_"
         x="0"
         y="0"
         width="100%"
         height="100%" />
    </clipPath>
    <clipPath
       id="SVGID_2_-1">
      <use
         id="use841-2"
         style="overflow:visible"
         xlink:href="#SVGID_1_"
         x="0"
         y="0"
         width="100%"
         height="100%" />
    </clipPath>
  </defs>
  <sodipodi:namedview
     id="base"
     pagecolor="#ffffff"
     bordercolor="#666666"
     borderopacity="1.0"
     inkscape:pageopacity="0.0"
     inkscape:pageshadow="2"
     inkscape:zoom="16"
     inkscape:cx="-5.9496722"
     inkscape:cy="14.090978"
     inkscape:document-units="mm"
     inkscape:current-layer="layer1"
     showgrid="false"
     units="px"
     inkscape:window-width="1886"
     inkscape:window-height="691"
     inkscape:window-x="10"
     inkscape:window-y="725"
     inkscape:window-maximized="0" />
  <metadata
     id="metadata4648">
    <rdf:RDF>
      <cc:Work
         rdf:about="">
        <dc:format>image/svg+xml</dc:format>
        <dc:type
           rdf:resource="http://purl.org/dc/dcmitype/StillImage" />
        <dc:title />
      </cc:Work>
    </rdf:RDF>
  </metadata>
  <g
     inkscape:label="Layer 1"
     inkscape:groupmode="layer"
     id="layer1"
     transform="translate(0,-289.39401)">
    <path
       inkscape:connector-curvature="0"
       d="m 0.695,293.15518 v -2.14132 q 0,-0.11285 0.1000008,-0.16919 l 2.9333323,-0.78328 q 0,-0.006 0.066667,-0.006 0.066668,0 0.066668,0.006 l 2.9333322,0.78328 q 0.1,0.0562 0.1,0.16919 v 4.28265 q 0,0.11274 -0.1,0.16919 l -2.9333322,0.78329 q 0,0.006 -0.066668,0.006 -0.066667,0 -0.066667,-0.006 L 0.7950008,295.4657 Q 0.695,295.4094 0.695,295.29651"
       id="path6-3"
       style="fill:#d3d7cf;fill-opacity:1;stroke:none;stroke-width:0.04333996" />
    <path
       inkscape:connector-curvature="0"
       d="m 0.79223735,293.15966 v -2.07191 q 0,-0.1092 0.0967746,-0.16371 l 2.83870895,-0.75789 q 0,-0.006 0.064517,-0.006 0.064517,0 0.064517,0.006 l 2.838709,0.75789 q 0.096774,0.0544 0.096774,0.16371 v 4.14383 q 0,0.10909 -0.096774,0.16371 l -2.838709,0.7579 q 0,0.006 -0.064517,0.006 -0.064517,0 -0.064517,-0.006 l -2.83870895,-0.7579 q -0.0967746,-0.0545 -0.0967746,-0.16371"
       id="path6"
       style="fill:#292b37;fill-opacity:1;stroke:none;stroke-width:0.04193855" />
    <g
       transform="matrix(0.18708867,-0.18708867,0.18708867,0.18708867,-191.68943,661.89541)"
       id="useMonetaEuro2">
      <circle
         style="fill:#ffffff;fill-opacity:1;fill-rule:nonzero;stroke:#000000;stroke-width:9;stroke-linecap:round;stroke-linejoin:round;stroke-miterlimit:4;stroke-opacity:1"
         id="circle860"
         sodipodi:nodetypes="cssss"
         cx="305"
         cy="240"
         r="60" />
      <text
         x="270"
         y="275"
         style="font-weight:normal;font-size:100px;line-height:0%;font-family:Arial;fill:#000000;fill-opacity:1;stroke:none"
         id="text862"
         xml:space="preserve">€</text>
    </g>
    <g
       id="g913"
       transform="matrix(0.26458333,0,0,0.26458333,-29.848995,284.84963)" />
    <g
       id="g915"
       transform="matrix(0.26458333,0,0,0.26458333,-29.848995,284.84963)" />
    <g
       id="g917"
       transform="matrix(0.26458333,0,0,0.26458333,-29.848995,284.84963)" />
    <g
       id="g919"
       transform="matrix(0.26458333,0,0,0.26458333,-29.848995,284.84963)" />
    <g
       id="g921"
       transform="matrix(0.26458333,0,0,0.26458333,-29.848995,284.84963)" />
    <g
       id="g923"
       transform="matrix(0.26458333,0,0,0.26458333,-29.848995,284.84963)" />
    <path
       clip-path="url(#SVGID_2_)"
       d="M 33.601,9.87 V 26.65 H 7.559 v -16.798 0 c 0,-1.423 1.101,-2.457 2.459,-2.457 v 0 h 21.123 v 0 0 c 1.358,0 2.459,1.025 2.459,2.457 10e-4,0.006 10e-4,0.012 10e-4,0.018 z"
       style="fill:#d3d7cf;fill-opacity:1;stroke:#d3d7cf;stroke-width:1.00094986;stroke-miterlimit:4;stroke-dasharray:none;stroke-opacity:1"
       id="wallet_back_2_"
       inkscape:connector-curvature="0"
       transform="matrix(0.13986715,0,0,0.13986715,0.89338356,290.6443)" />
    <path
       clip-path="url(#SVGID_2_-1)"
       d="M 33.601,9.87 V 26.65 H 7.559 v -16.798 0 c 0,-1.423 1.101,-2.457 2.459,-2.457 v 0 h 21.123 v 0 0 c 1.358,0 2.459,1.025 2.459,2.457 10e-4,0.006 10e-4,0.012 10e-4,0.018 z"
       style="fill:#292b37;fill-opacity:1;stroke:#d3d7cf;stroke-width:1.00094986;stroke-miterlimit:4;stroke-dasharray:none;stroke-opacity:1"
       id="wallet_back_2_-7"
       inkscape:connector-curvature="0"
       transform="matrix(0.13941121,0,0,0.13986715,0.89683,291.17347)" />
    <rect
       style="opacity:1;fill:#292b37;fill-opacity:1;fill-rule:nonzero;stroke:none;stroke-width:0.0451889;stroke-linecap:round;stroke-linejoin:bevel;stroke-miterlimit:4;stroke-dasharray:none;stroke-dashoffset:0;stroke-opacity:1;paint-order:normal"
       id="rect1314-9"
       width="0.11985363"
       height="1.2840914"
       x="5.5015764"
       y="293.46878" />
    <rect
       style="opacity:1;fill:#292b37;fill-opacity:1;fill-rule:nonzero;stroke:none;stroke-width:0.14;stroke-linecap:round;stroke-linejoin:bevel;stroke-miterlimit:4;stroke-dasharray:none;stroke-dashoffset:0;stroke-opacity:1;paint-order:normal"
       id="rect1314"
       width="3.4143682"
       height="0.43264255"
       x="2.0813613"
       y="294.68475" />
    <rect
       style="opacity:1;fill:#292b37;fill-opacity:1;fill-rule:nonzero;stroke:none;stroke-width:0.0451889;stroke-linecap:round;stroke-linejoin:bevel;stroke-miterlimit:4;stroke-dasharray:none;stroke-dashoffset:0;stroke-opacity:1;paint-order:normal"
       id="rect1314-9-3"
       width="0.11985364"
       height="1.2840914"
       x="1.9243008"
       y="293.36554" />
    <path
       clip-path="url(#SVGID_2_)"
       d="M 33.601,26.906 H 7.559 V 17.15 h 6.324 c 0.155,0 0.311,0 0.466,0.001 0.131,0.001 0.262,0.002 0.392,0.006 0.285,0.008 0.572,0.024 0.854,0.075 0.286,0.051 0.552,0.135 0.812,0.267 -0.055,-0.028 0.715,0.288 1.391,1.339 0.488,0.758 1.436,1.562 2.763,1.562 1.327,0 2.276,-0.804 2.763,-1.562 0.642,-0.998 1.356,-1.322 1.39,-1.339 0.26,-0.132 0.526,-0.216 0.812,-0.267 0.282,-0.051 0.569,-0.067 0.854,-0.075 0.131,-0.004 0.262,-0.005 0.392,-0.006 0.155,-0.001 0.311,-0.001 0.466,-0.001 H 33.6 v 9.756 z"
       style="fill:#d3d7cf;fill-opacity:1"
       id="wallet_pocket_1_"
       inkscape:connector-curvature="0"
       transform="matrix(0.13986715,0,0,0.13986715,0.89338356,290.6443)" />
  </g>
</svg>
