<?xml version="1.0" encoding="UTF-8" standalone="no"?>
<!-- Created with Inkscape (http://www.inkscape.org/) -->

<svg
   xmlns:dc="http://purl.org/dc/elements/1.1/"
   xmlns:cc="http://creativecommons.org/ns#"
   xmlns:rdf="http://www.w3.org/1999/02/22-rdf-syntax-ns#"
   xmlns:svg="http://www.w3.org/2000/svg"
   xmlns="http://www.w3.org/2000/svg"
   xmlns:xlink="http://www.w3.org/1999/xlink"
   xmlns:sodipodi="http://sodipodi.sourceforge.net/DTD/sodipodi-0.dtd"
   xmlns:inkscape="http://www.inkscape.org/namespaces/inkscape"
   width="28.747"
   height="28.747"
   viewBox="0 0 7.6059768 7.6059772"
   version="1.1"
   id="svg4651"
   inkscape:version="0.92.4 5da689c313, 2019-01-14"
   sodipodi:docname="ultramarine-social.svg">
  <defs
     id="defs4645">
    <path
       d="M33.601,21.437c0,0.199,0,0.398-0.001,0.597c-0.001,0.168-0.003,0.335-0.008,0.503      c-0.01,0.365-0.032,0.733-0.097,1.094c-0.067,0.367-0.176,0.708-0.347,1.041c-0.169,0.327-0.389,0.627-0.652,0.886      c-0.263,0.26-0.566,0.477-0.898,0.644c-0.337,0.169-0.683,0.277-1.054,0.343c-0.366,0.065-0.739,0.086-1.109,0.096      c-0.17,0.005-0.34,0.006-0.509,0.007c-0.202,0.001-0.403,0.001-0.605,0.001l-0.168,0H15.155l-2.316,0      c-0.202,0-0.403,0-0.605-0.001c-0.17-0.001-0.34-0.003-0.509-0.007c-0.37-0.01-0.743-0.031-1.109-0.096      c-0.371-0.066-0.717-0.173-1.054-0.343c-0.331-0.167-0.635-0.384-0.898-0.644c-0.263-0.26-0.483-0.559-0.652-0.886      c-0.172-0.333-0.281-0.674-0.347-1.041C7.6,23.27,7.578,22.902,7.568,22.537c-0.005-0.168-0.007-0.335-0.008-0.503      c-0.001-0.199-0.001-0.398-0.001-0.597l0-2.286v-6.999l0-1.459c0-0.127,0-0.254,0.001-0.381      c0.001-0.107,0.002-0.214,0.005-0.321c0.006-0.233,0.02-0.468,0.062-0.698c0.043-0.234,0.112-0.452,0.222-0.664      c0.108-0.209,0.248-0.4,0.416-0.565c0.168-0.166,0.361-0.305,0.573-0.411C9.052,7.544,9.273,7.475,9.51,7.433      c0.233-0.041,0.472-0.055,0.708-0.061c0.108-0.003,0.217-0.004,0.325-0.005c0.129-0.001,0.257-0.001,0.386-0.001l1.478,0h17.722      l-1.373,0.001l1.478-0.001c0.129,0,0.257,0,0.386,0.001c0.108,0.001,0.217,0.002,0.325,0.005      c0.236,0.006,0.474,0.02,0.708,0.061c0.237,0.042,0.457,0.111,0.672,0.219c0.211,0.106,0.405,0.245,0.573,0.411      c0.168,0.166,0.308,0.357,0.416,0.565c0.11,0.213,0.179,0.43,0.222,0.664c0.042,0.23,0.056,0.465,0.062,0.698      c0.003,0.107,0.004,0.214,0.005,0.321c0.001,0.127,0.001,0.254,0.001,0.381l0,1.459v6.999L33.601,21.437z"
       id="SVGID_1_" />
    <path
       d="M8.644,20.764V11.55l0-0.936c0-0.082,0-0.163,0-0.245c0-0.069,0.001-0.137,0.003-0.206       c0.004-0.15,0.013-0.3,0.039-0.448c0.027-0.15,0.071-0.29,0.141-0.426c0.068-0.134,0.157-0.257,0.264-0.363       C9.198,8.82,9.321,8.731,9.455,8.663c0.136-0.069,0.276-0.113,0.427-0.14c0.148-0.027,0.299-0.035,0.449-0.039       c0.069-0.002,0.137-0.003,0.206-0.003c0.082,0,0.163,0,0.245,0l0.937,0h18.592l-0.869,0l0.937,0c0.082,0,0.163,0,0.245,0       c0.069,0,0.137,0.001,0.206,0.003c0.15,0.004,0.301,0.013,0.449,0.039c0.15,0.027,0.29,0.071,0.427,0.14       c0.134,0.068,0.257,0.157,0.363,0.264c0.106,0.106,0.196,0.229,0.264,0.363c0.07,0.136,0.114,0.276,0.141,0.426       c0.027,0.148,0.035,0.299,0.039,0.448c0.002,0.069,0.003,0.137,0.003,0.206c0,0.082,0,0.163,0,0.245l0,0.936v9.214H8.644z"
       id="blue_1_" />
    <defs
       id="defs839">
      <path
         d="m 33.601,21.437 c 0,0.199 0,0.398 -10e-4,0.597 -0.001,0.168 -0.003,0.335 -0.008,0.503 -0.01,0.365 -0.032,0.733 -0.097,1.094 -0.067,0.367 -0.176,0.708 -0.347,1.041 -0.169,0.327 -0.389,0.627 -0.652,0.886 -0.263,0.26 -0.566,0.477 -0.898,0.644 -0.337,0.169 -0.683,0.277 -1.054,0.343 -0.366,0.065 -0.739,0.086 -1.109,0.096 -0.17,0.005 -0.34,0.006 -0.509,0.007 -0.202,0.001 -0.403,0.001 -0.605,0.001 H 28.153 15.155 12.839 c -0.202,0 -0.403,0 -0.605,-0.001 -0.17,-0.001 -0.34,-0.003 -0.509,-0.007 -0.37,-0.01 -0.743,-0.031 -1.109,-0.096 C 10.245,26.479 9.899,26.372 9.562,26.202 9.231,26.035 8.927,25.818 8.664,25.558 8.401,25.298 8.181,24.999 8.012,24.672 7.84,24.339 7.731,23.998 7.665,23.631 7.6,23.27 7.578,22.902 7.568,22.537 7.563,22.369 7.561,22.202 7.56,22.034 7.559,21.835 7.559,21.636 7.559,21.437 v -2.286 -6.999 -1.459 c 0,-0.127 0,-0.254 10e-4,-0.381 C 7.561,10.205 7.562,10.098 7.565,9.991 7.571,9.758 7.585,9.523 7.627,9.293 7.67,9.059 7.739,8.841 7.849,8.629 7.957,8.42 8.097,8.229 8.265,8.064 8.433,7.898 8.626,7.759 8.838,7.653 9.052,7.544 9.273,7.475 9.51,7.433 9.743,7.392 9.982,7.378 10.218,7.372 10.326,7.369 10.435,7.368 10.543,7.367 10.672,7.366 10.8,7.366 10.929,7.366 h 1.478 17.722 l -1.373,0.001 1.478,-0.001 c 0.129,0 0.257,0 0.386,0.001 0.108,0.001 0.217,0.002 0.325,0.005 0.236,0.006 0.474,0.02 0.708,0.061 0.237,0.042 0.457,0.111 0.672,0.219 0.211,0.106 0.405,0.245 0.573,0.411 0.168,0.166 0.308,0.357 0.416,0.565 0.11,0.213 0.179,0.43 0.222,0.664 0.042,0.23 0.056,0.465 0.062,0.698 0.003,0.107 0.004,0.214 0.005,0.321 10e-4,0.127 10e-4,0.254 10e-4,0.381 v 1.459 6.999 z"
         id="path937"
         inkscape:connector-curvature="0" />
    </defs>
    <clipPath
       id="SVGID_2_">
      <use
         id="use841"
         style="overflow:visible"
         xlink:href="#SVGID_1_"
         x="0"
         y="0"
         width="100%"
         height="100%" />
    </clipPath>
    <linearGradient
       y2="18.348499"
       x2="20.580601"
       y1="16.4079"
       x1="20.580601"
       gradientUnits="userSpaceOnUse"
       id="SVGID_3_">
      <stop
         id="stop845"
         style="stop-color:#D3D1C8"
         offset="0.0038" />
      <stop
         id="stop847"
         style="stop-color:#C4C3BB"
         offset="0.2318" />
      <stop
         id="stop849"
         style="stop-color:#A5A59F"
         offset="0.6887" />
      <stop
         id="stop851"
         style="stop-color:#8C8D88"
         offset="1" />
    </linearGradient>
    <clipPath
       id="SVGID_2_-5">
      <use
         id="use841-3"
         style="overflow:visible"
         xlink:href="#SVGID_1_"
         x="0"
         y="0"
         width="100%"
         height="100%" />
    </clipPath>
    <clipPath
       id="SVGID_2_-5-6">
      <use
         id="use841-3-2"
         style="overflow:visible"
         xlink:href="#SVGID_1_"
         x="0"
         y="0"
         width="100%"
         height="100%" />
    </clipPath>
    <clipPath
       id="SVGID_2_-1">
      <use
         id="use841-2"
         style="overflow:visible"
         xlink:href="#SVGID_1_"
         x="0"
         y="0"
         width="100%"
         height="100%" />
    </clipPath>
  </defs>
  <sodipodi:namedview
     id="base"
     pagecolor="#ffffff"
     bordercolor="#666666"
     borderopacity="1.0"
     inkscape:pageopacity="0.0"
     inkscape:pageshadow="2"
     inkscape:zoom="20.48"
     inkscape:cx="1.3049568"
     inkscape:cy="5.1148272"
     inkscape:document-units="mm"
     inkscape:current-layer="layer1"
     showgrid="false"
     units="px"
     inkscape:window-width="1886"
     inkscape:window-height="691"
     inkscape:window-x="10"
     inkscape:window-y="725"
     inkscape:window-maximized="0" />
  <metadata
     id="metadata4648">
    <rdf:RDF>
      <cc:Work
         rdf:about="">
        <dc:format>image/svg+xml</dc:format>
        <dc:type
           rdf:resource="http://purl.org/dc/dcmitype/StillImage" />
        <dc:title />
      </cc:Work>
    </rdf:RDF>
  </metadata>
  <g
     inkscape:label="Layer 1"
     inkscape:groupmode="layer"
     id="layer1"
     transform="translate(0,-289.39401)">
    <path
       inkscape:connector-curvature="0"
       d="m 0.695,293.15518 v -2.14132 q 0,-0.11285 0.1000008,-0.16919 l 2.9333323,-0.78328 q 0,-0.006 0.066667,-0.006 0.066668,0 0.066668,0.006 l 2.9333322,0.78328 q 0.1,0.0562 0.1,0.16919 v 4.28265 q 0,0.11274 -0.1,0.16919 l -2.9333322,0.78329 q 0,0.006 -0.066668,0.006 -0.066667,0 -0.066667,-0.006 L 0.7950008,295.4657 Q 0.695,295.4094 0.695,295.29651"
       id="path6-3"
       style="fill:#d3d7cf;fill-opacity:1;stroke:none;stroke-width:0.04333996" />
    <path
       inkscape:connector-curvature="0"
       d="m 0.79223735,293.15966 v -2.07191 q 0,-0.1092 0.0967746,-0.16371 l 2.83870895,-0.75789 q 0,-0.006 0.064517,-0.006 0.064517,0 0.064517,0.006 l 2.838709,0.75789 q 0.096774,0.0544 0.096774,0.16371 v 4.14383 q 0,0.10909 -0.096774,0.16371 l -2.838709,0.7579 q 0,0.006 -0.064517,0.006 -0.064517,0 -0.064517,-0.006 l -2.83870895,-0.7579 q -0.0967746,-0.0545 -0.0967746,-0.16371"
       id="path6"
       style="fill:#292b37;fill-opacity:1;stroke:none;stroke-width:0.04193855" />
    <g
       id="g913"
       transform="matrix(0.26458333,0,0,0.26458333,-29.848995,284.84963)" />
    <g
       id="g915"
       transform="matrix(0.26458333,0,0,0.26458333,-29.848995,284.84963)" />
    <g
       id="g917"
       transform="matrix(0.26458333,0,0,0.26458333,-29.848995,284.84963)" />
    <g
       id="g919"
       transform="matrix(0.26458333,0,0,0.26458333,-29.848995,284.84963)" />
    <g
       id="g921"
       transform="matrix(0.26458333,0,0,0.26458333,-29.848995,284.84963)" />
    <g
       id="g923"
       transform="matrix(0.26458333,0,0,0.26458333,-29.848995,284.84963)" />
    <g
       id="g938"
       transform="matrix(1.3580296,0,0,1.3580296,-1.3468056,-104.11705)">
      <g
         transform="translate(-0.36853422,-0.02044558)"
         id="g887">
        <path
           id="path22-6"
           d="m 3.5826111,293.15252 c 0.03546,0.004 0.091833,0.0152 0.1426273,0.0407 v -0.27198 c -0.040936,-0.0337 -0.1029573,-0.048 -0.1426273,-0.0534 z"
           inkscape:connector-curvature="0"
           style="fill:#d3d7cf;fill-opacity:1;stroke-width:0.03422782" />
        <path
           id="path24-0"
           d="M 5.2940021,292.57928 H 2.9408395 c -0.1181887,0 -0.2139239,0.0957 -0.2139239,0.21392 v 0.57048 c 0,0.11818 0.095735,0.21392 0.2139239,0.21392 h 2.3531626 c 0.1181887,0 0.2139239,-0.0957 0.2139239,-0.21392 v -0.57048 c 0,-0.11819 -0.095735,-0.21392 -0.2139239,-0.21392 z m -2.1035733,0.21392 c 0.059077,0 0.1069619,0.0479 0.1069619,0.10696 0,0.0591 -0.047885,0.10696 -0.1069619,0.10696 -0.059043,0 -0.106962,-0.0479 -0.106962,-0.10696 0,-0.0591 0.047885,-0.10696 0.106962,-0.10696 z m 0.1782585,0.49914 h -0.00363 -0.349295 -0.00359 v -0.0357 c 0,-0.0984 0.079819,-0.17826 0.1782585,-0.17826 0.098474,0 0.1782585,0.0798 0.1782585,0.17826 z m 0.6417716,-0.10696 c 0,0.0193 -0.015437,0.0352 -0.034844,0.0357 -0.1249658,0.003 -0.1870893,0.062 -0.189759,0.0645 -6.158e-4,6.8e-4 -0.00144,7.8e-4 -0.00205,0.001 -0.00288,0.002 -0.00602,0.005 -0.00955,0.006 -0.00168,7.2e-4 -0.00346,6.8e-4 -0.00517,0.001 -0.00274,7.2e-4 -0.00527,0.002 -0.00821,0.002 -0.0027,0 -0.0051,-9.6e-4 -0.00763,-0.002 -0.00199,-4.2e-4 -0.004,-4.2e-4 -0.00592,-0.001 -0.00442,-0.002 -0.00835,-0.004 -0.011672,-0.008 -0.060207,-0.0602 -0.1883214,-0.0643 -0.1896563,-0.0643 -0.01927,-5.8e-4 -0.034741,-0.0164 -0.034741,-0.0357 v -0.35655 c 0,-0.01 0.0039,-0.0188 0.010713,-0.0255 0.00691,-0.007 0.016464,-0.01 0.025774,-0.0102 0.00585,1.3e-4 0.130545,0.004 0.2138212,0.0644 0.035289,-0.0244 0.1061406,-0.0618 0.2123494,-0.0644 0.010337,2e-4 0.01886,0.003 0.025774,0.0102 0.00681,0.007 0.010713,0.0159 0.010713,0.0255 v 0.35655 z m 1.1409159,0.10696 h -0.926992 c -0.039396,0 -0.071297,-0.0319 -0.071297,-0.0713 0,-0.0394 0.0319,-0.0713 0.071297,-0.0713 h 0.926992 c 0.039396,0 0.071331,0.0319 0.071331,0.0713 0,0.0394 -0.031935,0.0713 -0.071331,0.0713 z m 0,-0.28522 h -0.926992 c -0.039396,0 -0.071297,-0.0319 -0.071297,-0.0713 0,-0.0394 0.0319,-0.0713 0.071297,-0.0713 h 0.926992 c 0.039396,0 0.071331,0.0319 0.071331,0.0713 0,0.0394 -0.031935,0.0713 -0.071331,0.0713 z"
           inkscape:connector-curvature="0"
           style="fill:#d3d7cf;fill-opacity:1;stroke-width:0.03422782" />
        <path
           id="path26-6"
           d="m 3.796535,293.1936 c 0.033714,-0.0176 0.080846,-0.0355 0.1426273,-0.0418 v -0.28478 c -0.075678,0.009 -0.1228436,0.0382 -0.1426273,0.0531 z"
           inkscape:connector-curvature="0"
           style="fill:#d3d7cf;fill-opacity:1;stroke-width:0.03422782" />
      </g>
      <g
         transform="translate(0.27338138)"
         id="g874">
        <path
           id="path4-6"
           d="m 2.2990678,292.36535 h 2.3531627 c 0.1179491,0 0.213924,-0.0959 0.213924,-0.21392 v -0.57048 c 0,-0.11795 -0.095975,-0.21392 -0.213924,-0.21392 H 2.2990678 c -0.117949,0 -0.2139239,0.096 -0.2139239,0.21392 v 0.57048 c 0,0.11795 0.095975,0.21392 0.2139239,0.21392 z m -0.071296,-0.7844 c 0,-0.0393 0.031934,-0.0713 0.071296,-0.0713 h 2.3531627 c 0.039362,0 0.071297,0.032 0.071297,0.0713 v 0.57048 c 0,0.0393 -0.031935,0.0713 -0.071297,0.0713 H 2.2990678 c -0.039362,0 -0.071296,-0.032 -0.071296,-0.0713 z"
           inkscape:connector-curvature="0"
           style="fill:#d3d7cf;fill-opacity:1;stroke-width:0.03422782" />
        <path
           id="path6-2"
           d="m 3.5826111,291.79488 h 0.9269921 c 0.039396,0 0.071331,-0.0319 0.071331,-0.0713 0,-0.0394 -0.031935,-0.0713 -0.071331,-0.0713 H 3.5826111 c -0.039396,0 -0.071296,0.0319 -0.071296,0.0713 0,0.0394 0.0319,0.0713 0.071296,0.0713 z"
           inkscape:connector-curvature="0"
           style="fill:#d3d7cf;fill-opacity:1;stroke-width:0.03422782" />
        <path
           id="path8-9"
           d="m 3.5826111,292.0801 h 0.9269921 c 0.039396,0 0.071331,-0.0319 0.071331,-0.0713 0,-0.0394 -0.031935,-0.0713 -0.071331,-0.0713 H 3.5826111 c -0.039396,0 -0.071296,0.0319 -0.071296,0.0713 0,0.0394 0.0319,0.0713 0.071296,0.0713 z"
           inkscape:connector-curvature="0"
           style="fill:#d3d7cf;fill-opacity:1;stroke-width:0.03422782" />
        <circle
           id="circle10-1"
           r="0.10696194"
           cy="291.68793"
           cx="2.5486572"
           style="fill:#d3d7cf;fill-opacity:1;stroke-width:0.03422782" />
        <path
           id="path12-2"
           d="m 2.7232874,292.0801 h 0.00363 v -0.0357 c 0,-0.0984 -0.079819,-0.17826 -0.1782585,-0.17826 -0.098439,0 -0.1782585,0.0798 -0.1782585,0.17826 v 0.0357 h 0.00359 z"
           inkscape:connector-curvature="0"
           style="fill:#d3d7cf;fill-opacity:1;stroke-width:0.03422782" />
        <path
           id="path28-2"
           d="m 2.90425,292.00531 c 0.0013,0 0.1294496,0.004 0.1896564,0.0643 0.00332,0.003 0.00726,0.006 0.011672,0.008 0.00195,7.6e-4 0.00394,7.6e-4 0.00592,0.001 0.0025,5.5e-4 0.00493,0.002 0.00763,0.002 0.00291,0 0.00548,-9.9e-4 0.00821,-0.002 0.00171,-4.1e-4 0.00349,-3.4e-4 0.00517,-0.001 0.00353,-10e-4 0.00667,-0.004 0.00955,-0.006 6.157e-4,-5.5e-4 0.00144,-6.9e-4 0.00205,-0.001 0.0027,-0.002 0.064828,-0.0615 0.1897933,-0.0645 0.019339,-5.1e-4 0.03481,-0.0163 0.03481,-0.0357 v -0.35651 c 0,-0.01 -0.0039,-0.0188 -0.010713,-0.0255 -0.00691,-0.007 -0.015471,-0.01 -0.025739,-0.0102 -0.1062432,0.003 -0.1770605,0.0401 -0.2123494,0.0644 -0.083276,-0.0605 -0.2079682,-0.0643 -0.2138212,-0.0644 -0.00928,4.1e-4 -0.01886,0.003 -0.025774,0.0102 -0.00681,0.007 -0.010713,0.0159 -0.010713,0.0255 v 0.35655 c -6.85e-5,0.0193 0.015368,0.0351 0.034639,0.0356 z m 0.2505134,-0.30083 c 0.019784,-0.0149 0.06695,-0.0442 0.1426273,-0.0532 v 0.28481 c -0.061747,0.006 -0.1089129,0.0242 -0.1426273,0.0417 z m -0.2139239,-0.0524 c 0.039636,0.005 0.1016567,0.0197 0.1426273,0.0534 v 0.27201 c -0.050794,-0.0255 -0.107133,-0.0366 -0.1426273,-0.0407 z"
           inkscape:connector-curvature="0"
           style="fill:#d3d7cf;fill-opacity:1;stroke-width:0.03422782" />
      </g>
    </g>
  </g>
</svg>
