<?xml version="1.0" encoding="UTF-8" standalone="no"?>
<!-- Created with Inkscape (http://www.inkscape.org/) -->

<svg
   xmlns:dc="http://purl.org/dc/elements/1.1/"
   xmlns:cc="http://creativecommons.org/ns#"
   xmlns:rdf="http://www.w3.org/1999/02/22-rdf-syntax-ns#"
   xmlns:svg="http://www.w3.org/2000/svg"
   xmlns="http://www.w3.org/2000/svg"
   xmlns:sodipodi="http://sodipodi.sourceforge.net/DTD/sodipodi-0.dtd"
   xmlns:inkscape="http://www.inkscape.org/namespaces/inkscape"
   width="28.747"
   height="28.747"
   viewBox="0 0 7.6059768 7.6059772"
   version="1.1"
   id="svg4651"
   inkscape:version="0.92.4 5da689c313, 2019-01-14"
   sodipodi:docname="teal-camera.svg">
  <defs
     id="defs4645" />
  <sodipodi:namedview
     id="base"
     pagecolor="#ffffff"
     bordercolor="#666666"
     borderopacity="1.0"
     inkscape:pageopacity="0.0"
     inkscape:pageshadow="2"
     inkscape:zoom="22.4"
     inkscape:cx="0.87876566"
     inkscape:cy="11.85478"
     inkscape:document-units="mm"
     inkscape:current-layer="layer1"
     showgrid="false"
     units="px"
     inkscape:window-width="1886"
     inkscape:window-height="691"
     inkscape:window-x="10"
     inkscape:window-y="725"
     inkscape:window-maximized="0" />
  <metadata
     id="metadata4648">
    <rdf:RDF>
      <cc:Work
         rdf:about="">
        <dc:format>image/svg+xml</dc:format>
        <dc:type
           rdf:resource="http://purl.org/dc/dcmitype/StillImage" />
        <dc:title />
      </cc:Work>
    </rdf:RDF>
  </metadata>
  <g
     inkscape:label="Layer 1"
     inkscape:groupmode="layer"
     id="layer1"
     transform="translate(0,-289.39401)">
    <path
       inkscape:connector-curvature="0"
       d="m 0.695,293.15518 v -2.14132 q 0,-0.11285 0.1000008,-0.16919 l 2.9333323,-0.78328 q 0,-0.006 0.066667,-0.006 0.066668,0 0.066668,0.006 l 2.9333322,0.78328 q 0.1,0.0562 0.1,0.16919 v 4.28265 q 0,0.11274 -0.1,0.16919 l -2.9333322,0.78329 q 0,0.006 -0.066668,0.006 -0.066667,0 -0.066667,-0.006 L 0.7950008,295.4657 Q 0.695,295.4094 0.695,295.29651"
       id="path6-3"
       style="fill:#d3d7cf;fill-opacity:1;stroke:none;stroke-width:0.04333996" />
    <path
       inkscape:connector-curvature="0"
       d="m 0.79223735,293.15966 v -2.07191 q 0,-0.1092 0.0967746,-0.16371 l 2.83870895,-0.75789 q 0,-0.006 0.064517,-0.006 0.064517,0 0.064517,0.006 l 2.838709,0.75789 q 0.096774,0.0544 0.096774,0.16371 v 4.14383 q 0,0.10909 -0.096774,0.16371 l -2.838709,0.7579 q 0,0.006 -0.064517,0.006 -0.064517,0 -0.064517,-0.006 l -2.83870895,-0.7579 q -0.0967746,-0.0545 -0.0967746,-0.16371"
       id="path6"
       style="fill:#4b5b5f;fill-opacity:1;stroke:none;stroke-width:0.04193855" />
    <path
       inkscape:connector-curvature="0"
       d="m 3.7714638,291.53288 c -0.018351,0 -0.036702,0.0147 -0.047714,0.033 l -0.3450045,0.66432 c -0.00734,0.0183 -0.025692,0.033 -0.047714,0.033 H 2.8135256 c -0.3046316,3e-5 -0.550539,0.24594 -0.550539,0.55058 v 1.61858 c 0,0.0183 0.014681,0.033 0.033033,0.033 h 2.8664733 c 0.018351,0 0.033033,-0.0147 0.033033,-0.033 v -2.13242 c 0,-0.0221 -0.014681,-0.033 -0.033033,-0.033 H 4.8652018 c -0.018351,0 -0.036702,-0.0147 -0.047714,-0.033 l -0.3450045,-0.66431 c -0.011014,-0.0183 -0.025692,-0.033 -0.047714,-0.033 H 3.7604535 Z m -0.9505973,1.10108 c 0.1027668,0 0.1835129,0.0807 0.1835129,0.18351 0,0.10279 -0.080745,0.18351 -0.1835129,0.18351 -0.1027668,0 -0.1835131,-0.0807 -0.1835131,-0.18351 0,-0.10279 0.080745,-0.18351 0.1835131,-0.18351 z m 1.284591,0 c 0.4037287,0 0.7340521,0.33031 0.7340521,0.73405 0,0.40373 -0.3303234,0.73405 -0.7340521,0.73405 -0.4037286,0 -0.734052,-0.33032 -0.734052,-0.73405 0,-0.40374 0.3303234,-0.73405 0.734052,-0.73405 z m 0,0.36702 c -0.2018643,0 -0.367026,0.16517 -0.367026,0.36703 0,0.20187 0.1651617,0.36703 0.367026,0.36703 0.2018644,0 0.3670261,-0.16516 0.3670261,-0.36703 0,-0.20186 -0.1651617,-0.36703 -0.3670261,-0.36703 z"
       id="path2"
       style="fill:#d3d7cf;fill-opacity:1;stroke-width:0.367026" />
  </g>
</svg>
