<?xml version="1.0" encoding="UTF-8" standalone="no"?>
<!-- Created with Inkscape (http://www.inkscape.org/) -->

<svg
   xmlns:dc="http://purl.org/dc/elements/1.1/"
   xmlns:cc="http://creativecommons.org/ns#"
   xmlns:rdf="http://www.w3.org/1999/02/22-rdf-syntax-ns#"
   xmlns:svg="http://www.w3.org/2000/svg"
   xmlns="http://www.w3.org/2000/svg"
   xmlns:sodipodi="http://sodipodi.sourceforge.net/DTD/sodipodi-0.dtd"
   xmlns:inkscape="http://www.inkscape.org/namespaces/inkscape"
   width="28.747"
   height="28.747"
   viewBox="0 0 7.6059768 7.6059772"
   version="1.1"
   id="svg4651"
   inkscape:version="0.92.4 5da689c313, 2019-01-14"
   sodipodi:docname="teal-image.svg">
  <defs
     id="defs4645" />
  <sodipodi:namedview
     id="base"
     pagecolor="#ffffff"
     bordercolor="#666666"
     borderopacity="1.0"
     inkscape:pageopacity="0.0"
     inkscape:pageshadow="2"
     inkscape:zoom="11.2"
     inkscape:cx="-28.286548"
     inkscape:cy="5.3077705"
     inkscape:document-units="mm"
     inkscape:current-layer="layer1"
     showgrid="false"
     units="px"
     inkscape:window-width="1886"
     inkscape:window-height="691"
     inkscape:window-x="10"
     inkscape:window-y="725"
     inkscape:window-maximized="0" />
  <metadata
     id="metadata4648">
    <rdf:RDF>
      <cc:Work
         rdf:about="">
        <dc:format>image/svg+xml</dc:format>
        <dc:type
           rdf:resource="http://purl.org/dc/dcmitype/StillImage" />
        <dc:title />
      </cc:Work>
    </rdf:RDF>
  </metadata>
  <g
     inkscape:label="Layer 1"
     inkscape:groupmode="layer"
     id="layer1"
     transform="translate(0,-289.39401)">
    <path
       inkscape:connector-curvature="0"
       d="m 0.695,293.15518 v -2.14132 q 0,-0.11285 0.1000008,-0.16919 l 2.9333323,-0.78328 q 0,-0.006 0.066667,-0.006 0.066668,0 0.066668,0.006 l 2.9333322,0.78328 q 0.1,0.0562 0.1,0.16919 v 4.28265 q 0,0.11274 -0.1,0.16919 l -2.9333322,0.78329 q 0,0.006 -0.066668,0.006 -0.066667,0 -0.066667,-0.006 L 0.7950008,295.4657 Q 0.695,295.4094 0.695,295.29651"
       id="path6-3"
       style="fill:#d3d7cf;fill-opacity:1;stroke:none;stroke-width:0.04333996" />
    <path
       inkscape:connector-curvature="0"
       d="m 0.79223735,293.15966 v -2.07191 q 0,-0.1092 0.0967746,-0.16371 l 2.83870895,-0.75789 q 0,-0.006 0.064517,-0.006 0.064517,0 0.064517,0.006 l 2.838709,0.75789 q 0.096774,0.0544 0.096774,0.16371 v 4.14383 q 0,0.10909 -0.096774,0.16371 l -2.838709,0.7579 q 0,0.006 -0.064517,0.006 -0.064517,0 -0.064517,-0.006 l -2.83870895,-0.7579 q -0.0967746,-0.0545 -0.0967746,-0.16371"
       id="path6"
       style="fill:#4b5b5f;fill-opacity:1;stroke:none;stroke-width:0.04193855" />
    <g
       id="g842"
       transform="matrix(0.83629026,0,0,0.83629026,0.59245242,48.010014)">
      <rect
         y="291.73694"
         x="1.6846926"
         height="2.8480906"
         width="4.2930164"
         id="rect815"
         style="opacity:1;fill:none;fill-opacity:1;fill-rule:nonzero;stroke:#d3d7cf;stroke-width:0.21299998;stroke-linecap:round;stroke-linejoin:round;stroke-miterlimit:4;stroke-dasharray:none;stroke-dashoffset:0;stroke-opacity:1" />
      <g
         transform="matrix(1.0644872,0,0,1.0644872,-0.06729996,-19.021466)"
         id="g836">
        <path
           sodipodi:type="star"
           style="opacity:1;fill:#d3d7cf;fill-opacity:1;fill-rule:nonzero;stroke:none;stroke-width:0.21299998;stroke-linecap:round;stroke-linejoin:round;stroke-miterlimit:4;stroke-dasharray:none;stroke-dashoffset:0;stroke-opacity:1"
           id="path817"
           sodipodi:sides="3"
           sodipodi:cx="2.5528567"
           sodipodi:cy="294.08301"
           sodipodi:r1="1.0028521"
           sodipodi:r2="0.50142604"
           sodipodi:arg1="2.6173334"
           sodipodi:arg2="3.6645309"
           inkscape:flatsided="false"
           inkscape:rounded="0"
           inkscape:randomized="0"
           d="m 1.6846927,294.58501 0.4337508,-0.75243 0.4337508,-0.75242 0.4347444,0.75185 0.4347444,0.75185 -0.8684952,5.7e-4 z"
           inkscape:transform-center-x="-0.00033115581"
           inkscape:transform-center-y="-0.25042621" />
        <path
           sodipodi:type="star"
           style="opacity:1;fill:#d3d7cf;fill-opacity:1;fill-rule:nonzero;stroke:none;stroke-width:0.29193929;stroke-linecap:round;stroke-linejoin:round;stroke-miterlimit:4;stroke-dasharray:none;stroke-dashoffset:0;stroke-opacity:1"
           id="path817-3"
           sodipodi:sides="3"
           sodipodi:cx="4.4319072"
           sodipodi:cy="293.91064"
           sodipodi:r1="1.374516"
           sodipodi:r2="0.68725801"
           sodipodi:arg1="2.6173334"
           sodipodi:arg2="3.6645309"
           inkscape:flatsided="false"
           inkscape:rounded="0"
           inkscape:randomized="0"
           d="m 3.2419956,294.59869 0.5945018,-1.03128 0.5945019,-1.03128 0.5958637,1.03049 0.5958636,1.0305 -1.1903655,7.8e-4 z"
           inkscape:transform-center-x="-0.00045385984"
           inkscape:transform-center-y="-0.34322653" />
      </g>
    </g>
  </g>
</svg>
