<?xml version="1.0" encoding="UTF-8" standalone="no"?>
<!-- Created with Inkscape (http://www.inkscape.org/) -->

<svg
   xmlns:dc="http://purl.org/dc/elements/1.1/"
   xmlns:cc="http://creativecommons.org/ns#"
   xmlns:rdf="http://www.w3.org/1999/02/22-rdf-syntax-ns#"
   xmlns:svg="http://www.w3.org/2000/svg"
   xmlns="http://www.w3.org/2000/svg"
   xmlns:sodipodi="http://sodipodi.sourceforge.net/DTD/sodipodi-0.dtd"
   xmlns:inkscape="http://www.inkscape.org/namespaces/inkscape"
   width="28.747"
   height="28.747"
   viewBox="0 0 7.6059768 7.6059772"
   version="1.1"
   id="svg4651"
   inkscape:version="0.92.4 5da689c313, 2019-01-14"
   sodipodi:docname="teal-hiragana.svg">
  <defs
     id="defs4645" />
  <sodipodi:namedview
     id="base"
     pagecolor="#ffffff"
     bordercolor="#666666"
     borderopacity="1.0"
     inkscape:pageopacity="0.0"
     inkscape:pageshadow="2"
     inkscape:zoom="7.919596"
     inkscape:cx="-33.236419"
     inkscape:cy="10.545422"
     inkscape:document-units="mm"
     inkscape:current-layer="layer1"
     showgrid="false"
     units="px"
     inkscape:window-width="1886"
     inkscape:window-height="691"
     inkscape:window-x="10"
     inkscape:window-y="725"
     inkscape:window-maximized="0" />
  <metadata
     id="metadata4648">
    <rdf:RDF>
      <cc:Work
         rdf:about="">
        <dc:format>image/svg+xml</dc:format>
        <dc:type
           rdf:resource="http://purl.org/dc/dcmitype/StillImage" />
        <dc:title />
      </cc:Work>
    </rdf:RDF>
  </metadata>
  <g
     inkscape:label="Layer 1"
     inkscape:groupmode="layer"
     id="layer1"
     transform="translate(0,-289.39401)">
    <path
       inkscape:connector-curvature="0"
       d="m 0.695,293.15518 v -2.14132 q 0,-0.11285 0.1000008,-0.16919 l 2.9333323,-0.78328 q 0,-0.006 0.066667,-0.006 0.066668,0 0.066668,0.006 l 2.9333322,0.78328 q 0.1,0.0562 0.1,0.16919 v 4.28265 q 0,0.11274 -0.1,0.16919 l -2.9333322,0.78329 q 0,0.006 -0.066668,0.006 -0.066667,0 -0.066667,-0.006 L 0.7950008,295.4657 Q 0.695,295.4094 0.695,295.29651"
       id="path6-3"
       style="fill:#d3d7cf;fill-opacity:1;stroke:none;stroke-width:0.04333996" />
    <path
       inkscape:connector-curvature="0"
       d="m 0.79223735,293.15966 v -2.07191 q 0,-0.1092 0.0967746,-0.16371 l 2.83870895,-0.75789 q 0,-0.006 0.064517,-0.006 0.064517,0 0.064517,0.006 l 2.838709,0.75789 q 0.096774,0.0544 0.096774,0.16371 v 4.14383 q 0,0.10909 -0.096774,0.16371 l -2.838709,0.7579 q 0,0.006 -0.064517,0.006 -0.064517,0 -0.064517,-0.006 l -2.83870895,-0.7579 q -0.0967746,-0.0545 -0.0967746,-0.16371"
       id="path6"
       style="fill:#4b5b5f;fill-opacity:1;stroke:none;stroke-width:0.04193855" />
    <g
       aria-label="ã‚"
       style="font-style:normal;font-variant:normal;font-weight:normal;font-stretch:normal;font-size:5.1349535px;line-height:1.25;font-family:'Sarasa Gothic J';-inkscape-font-specification:'Sarasa Gothic J';text-align:end;letter-spacing:0px;word-spacing:0px;text-anchor:end;fill:#d3d7cf;fill-opacity:1;stroke:none;stroke-width:0.48140183"
       id="text817"
       transform="matrix(0.849675,0,0,0.849675,1.1567559,44.290204)">
      <path
         d="m 2.9624099,290.71809 q -0.02054,0.0513 -0.035945,0.11297 -0.015405,0.0616 -0.025675,0.1181 -0.015405,0.0822 -0.03081,0.17973 -0.015405,0.0976 -0.03081,0.21053 0.4878206,-0.0257 0.9499664,-0.077 0.4621458,-0.0514 0.8524023,-0.14378 l 0.00513,0.37998 q -0.4056613,0.0668 -0.8934819,0.11811 -0.4826856,0.0514 -0.9551014,0.077 -0.02054,0.14891 -0.035945,0.3081 -0.01027,0.15918 -0.02054,0.3235 0.4518759,-0.12837 0.8626721,-0.12837 0.05135,0 0.097564,0 0.046215,0 0.092429,0.005 0.01027,-0.0308 0.015405,-0.0514 0.02054,-0.0565 0.035945,-0.14378 0.015405,-0.0873 0.02054,-0.15405 l 0.4056613,0.1027 q -0.02054,0.0514 -0.05135,0.14378 -0.03081,0.0873 -0.05135,0.14892 0,0.005 -0.00513,0.0103 0,0 0,0.0103 0.4826856,0.12837 0.7497032,0.45701 0.2721525,0.3235 0.2721525,0.7497 0,0.36972 -0.1745884,0.69322 -0.1694535,0.31837 -0.5391701,0.54944 -0.3697167,0.22594 -0.9653713,0.3235 l -0.220803,-0.34404 q 0.4672808,-0.0514 0.8010528,-0.21567 0.3389069,-0.16945 0.5186303,-0.43134 0.1848583,-0.26188 0.1848583,-0.59565 0,-0.29269 -0.1899933,-0.53403 -0.1899933,-0.24135 -0.54944,-0.34405 -0.220803,0.54431 -0.5186303,0.97051 -0.2978273,0.42107 -0.6264643,0.69835 0.061619,0.22081 0.1232389,0.41593 l -0.3697167,0.11297 q -0.02054,-0.0668 -0.04108,-0.13864 -0.02054,-0.0719 -0.04108,-0.14891 -0.210533,0.12837 -0.436471,0.20539 -0.225938,0.077 -0.4364711,0.077 -0.2516127,0 -0.431336,-0.15919 -0.1745885,-0.15918 -0.1745885,-0.48782 0,-0.33377 0.1745885,-0.65213 0.1745884,-0.31837 0.4621458,-0.58025 0.2926923,-0.26702 0.6470041,-0.43134 0.01027,-0.19513 0.025675,-0.38512 0.015405,-0.19 0.03081,-0.36972 -0.082159,0.005 -0.1591836,0.005 -0.077024,0 -0.1540486,0 -0.107834,0 -0.2670175,-0.005 -0.1540487,-0.005 -0.3080973,-0.0154 -0.1489136,-0.0103 -0.2567476,-0.0154 l -0.01027,-0.38512 q 0.092429,0.0154 0.2464777,0.0308 0.1591836,0.0154 0.3235021,0.0257 0.1694535,0.0103 0.2772875,0.0103 0.087294,0 0.1745884,0 0.087294,0 0.1745884,-0.005 0.01027,-0.11297 0.02054,-0.21053 0.015405,-0.1027 0.02054,-0.18486 0.00513,-0.0719 0.01027,-0.13351 0.00513,-0.0668 0,-0.11297 z m -0.2362079,2.17722 q 0,0.24648 0.025675,0.48269 0.025675,0.23107 0.061619,0.45701 0.2567477,-0.24135 0.4826856,-0.55971 0.2310729,-0.32351 0.3902565,-0.75484 -0.02054,0 -0.04108,0 -0.02054,0 -0.046215,0 -0.2516127,0 -0.4724157,0.0514 -0.2156681,0.0462 -0.3953915,0.11297 -0.00513,0.0514 -0.00513,0.1027 0,0.0513 0,0.10783 z m -1.2375238,1.1605 q 0,0.31837 0.2926924,0.31837 0.1489136,0 0.328637,-0.0668 0.1848583,-0.0667 0.3799865,-0.2054 -0.05135,-0.27215 -0.087294,-0.57511 -0.035945,-0.30296 -0.035945,-0.59052 0,-0.0257 0,-0.0462 0,-0.0257 0,-0.0462 -0.2464778,0.13864 -0.446741,0.34404 -0.2002632,0.2054 -0.3183671,0.43134 -0.112969,0.22594 -0.112969,0.43647 z"
         style="font-style:normal;font-variant:normal;font-weight:normal;font-stretch:normal;font-family:'Sarasa Gothic J';-inkscape-font-specification:'Sarasa Gothic J';fill:#d3d7cf;fill-opacity:1;stroke-width:0.48140183"
         id="path819"
         inkscape:connector-curvature="0" />
    </g>
  </g>
</svg>
