<?xml version="1.0" encoding="UTF-8" standalone="no"?>
<!-- Created with Inkscape (http://www.inkscape.org/) -->

<svg
   xmlns:dc="http://purl.org/dc/elements/1.1/"
   xmlns:cc="http://creativecommons.org/ns#"
   xmlns:rdf="http://www.w3.org/1999/02/22-rdf-syntax-ns#"
   xmlns:svg="http://www.w3.org/2000/svg"
   xmlns="http://www.w3.org/2000/svg"
   xmlns:sodipodi="http://sodipodi.sourceforge.net/DTD/sodipodi-0.dtd"
   xmlns:inkscape="http://www.inkscape.org/namespaces/inkscape"
   width="28.747"
   height="28.747"
   viewBox="0 0 7.6059768 7.6059772"
   version="1.1"
   id="svg4651"
   inkscape:version="0.92.4 5da689c313, 2019-01-14"
   sodipodi:docname="amber-settings.svg">
  <defs
     id="defs4645">
    <marker
       inkscape:stockid="Arrow2Mend"
       orient="auto"
       refY="0"
       refX="0"
       id="Arrow2Mend-5"
       style="overflow:visible">
      <path
         id="path45132-1"
         style="font-size:12px;fill-rule:evenodd;stroke-width:0.625;stroke-linejoin:round"
         d="M 8.7185878,4.0337352 -2.2072895,0.01601326 8.7185884,-4.0017078 c -1.7454984,2.3720609 -1.7354408,5.6174519 -6e-7,8.035443 z"
         transform="scale(-0.6,-0.6)"
         inkscape:connector-curvature="0" />
    </marker>
    <marker
       inkscape:stockid="DotM"
       orient="auto"
       refY="0"
       refX="0"
       id="DotM-00"
       style="overflow:visible">
      <path
         id="path14329-2"
         d="m -2.5,-1 c 0,2.76 -2.24,5 -5,5 -2.76,0 -5,-2.24 -5,-5 0,-2.76 2.24,-5 5,-5 2.76,0 5,2.24 5,5 z"
         style="fill-rule:evenodd;stroke:#000000;stroke-width:1pt;marker-start:none;marker-end:none"
         transform="matrix(0.4,0,0,0.4,2.96,0.4)"
         inkscape:connector-curvature="0" />
    </marker>
    <marker
       inkscape:stockid="Arrow2Mend"
       orient="auto"
       refY="0"
       refX="0"
       id="Arrow2Mend-07"
       style="overflow:visible">
      <path
         id="path45132-31"
         style="font-size:12px;fill-rule:evenodd;stroke-width:0.625;stroke-linejoin:round"
         d="M 8.7185878,4.0337352 -2.2072895,0.01601326 8.7185884,-4.0017078 c -1.7454984,2.3720609 -1.7354408,5.6174519 -6e-7,8.035443 z"
         transform="scale(-0.6,-0.6)"
         inkscape:connector-curvature="0" />
    </marker>
    <marker
       inkscape:stockid="DotM"
       orient="auto"
       refY="0"
       refX="0"
       id="DotM-0"
       style="overflow:visible">
      <path
         id="path14329-94"
         d="m -2.5,-1 c 0,2.76 -2.24,5 -5,5 -2.76,0 -5,-2.24 -5,-5 0,-2.76 2.24,-5 5,-5 2.76,0 5,2.24 5,5 z"
         style="fill-rule:evenodd;stroke:#000000;stroke-width:1pt;marker-start:none;marker-end:none"
         transform="matrix(0.4,0,0,0.4,2.96,0.4)"
         inkscape:connector-curvature="0" />
    </marker>
    <marker
       inkscape:stockid="Arrow2Mend"
       orient="auto"
       refY="0"
       refX="0"
       id="Arrow2Mend-6"
       style="overflow:visible">
      <path
         id="path45132-8"
         style="font-size:12px;fill-rule:evenodd;stroke-width:0.625;stroke-linejoin:round"
         d="M 8.7185878,4.0337352 -2.2072895,0.01601326 8.7185884,-4.0017078 c -1.7454984,2.3720609 -1.7354408,5.6174519 -6e-7,8.035443 z"
         transform="scale(-0.6,-0.6)"
         inkscape:connector-curvature="0" />
    </marker>
    <marker
       inkscape:stockid="DotM"
       orient="auto"
       refY="0"
       refX="0"
       id="DotM-8"
       style="overflow:visible">
      <path
         id="path14329-91"
         d="m -2.5,-1 c 0,2.76 -2.24,5 -5,5 -2.76,0 -5,-2.24 -5,-5 0,-2.76 2.24,-5 5,-5 2.76,0 5,2.24 5,5 z"
         style="fill-rule:evenodd;stroke:#000000;stroke-width:1pt;marker-start:none;marker-end:none"
         transform="matrix(0.4,0,0,0.4,2.96,0.4)"
         inkscape:connector-curvature="0" />
    </marker>
    <clipPath
       id="clipPath3169-2"
       clipPathUnits="userSpaceOnUse">
      <rect
         y="105.34417"
         x="48.992397"
         height="428.80975"
         width="748.77557"
         id="rect3171-7"
         style="fill:#f5f5f4;fill-opacity:1;stroke:#888a85;stroke-width:2;stroke-miterlimit:4;stroke-opacity:1;stroke-dasharray:none;stroke-dashoffset:0" />
    </clipPath>
    <clipPath
       clipPathUnits="userSpaceOnUse"
       id="clipPath22-7">
      <path
         inkscape:connector-curvature="0"
         d="M 0,792 1224,792 1224,0 0,0 0,792 z"
         id="path24-2" />
    </clipPath>
    <clipPath
       id="clipPath6483-7"
       clipPathUnits="userSpaceOnUse">
      <rect
         y="187.65627"
         x="67.578148"
         height="280"
         width="548"
         id="rect6485-5"
         style="fill:#ffffff;fill-opacity:1;stroke:none" />
    </clipPath>
    <clipPath
       clipPathUnits="userSpaceOnUse"
       id="clipPath10152">
      <rect
         style="fill:#555753;fill-opacity:1;stroke:#555753;stroke-width:1.83322382;stroke-miterlimit:4;stroke-opacity:1;stroke-dasharray:none;stroke-dashoffset:0"
         id="rect10154"
         width="718.58722"
         height="140.17392"
         x="-37.134048"
         y="754.14667" />
    </clipPath>
    <marker
       inkscape:stockid="Arrow2Mend"
       orient="auto"
       refY="0"
       refX="0"
       id="Arrow2Mend-0"
       style="overflow:visible">
      <path
         id="path45132-982"
         style="font-size:12px;fill-rule:evenodd;stroke-width:0.625;stroke-linejoin:round"
         d="M 8.7185878,4.0337352 -2.2072895,0.01601326 8.7185884,-4.0017078 c -1.7454984,2.3720609 -1.7354408,5.6174519 -6e-7,8.035443 z"
         transform="scale(-0.6,-0.6)"
         inkscape:connector-curvature="0" />
    </marker>
    <marker
       inkscape:stockid="DotM"
       orient="auto"
       refY="0"
       refX="0"
       id="DotM-2"
       style="overflow:visible">
      <path
         id="path14329-95"
         d="m -2.5,-1 c 0,2.76 -2.24,5 -5,5 -2.76,0 -5,-2.24 -5,-5 0,-2.76 2.24,-5 5,-5 2.76,0 5,2.24 5,5 z"
         style="fill-rule:evenodd;stroke:#000000;stroke-width:1pt;marker-start:none;marker-end:none"
         transform="matrix(0.4,0,0,0.4,2.96,0.4)"
         inkscape:connector-curvature="0" />
    </marker>
    <marker
       inkscape:stockid="Arrow2Mend"
       orient="auto"
       refY="0"
       refX="0"
       id="Arrow2Mend-2"
       style="overflow:visible">
      <path
         id="path45132-98"
         style="font-size:12px;fill-rule:evenodd;stroke-width:0.625;stroke-linejoin:round"
         d="M 8.7185878,4.0337352 -2.2072895,0.01601326 8.7185884,-4.0017078 c -1.7454984,2.3720609 -1.7354408,5.6174519 -6e-7,8.035443 z"
         transform="scale(-0.6,-0.6)"
         inkscape:connector-curvature="0" />
    </marker>
    <marker
       inkscape:stockid="DotM"
       orient="auto"
       refY="0"
       refX="0"
       id="DotM-5"
       style="overflow:visible">
      <path
         id="path14329-1"
         d="m -2.5,-1 c 0,2.76 -2.24,5 -5,5 -2.76,0 -5,-2.24 -5,-5 0,-2.76 2.24,-5 5,-5 2.76,0 5,2.24 5,5 z"
         style="fill-rule:evenodd;stroke:#000000;stroke-width:1pt;marker-start:none;marker-end:none"
         transform="matrix(0.4,0,0,0.4,2.96,0.4)"
         inkscape:connector-curvature="0" />
    </marker>
    <marker
       inkscape:stockid="Arrow2Mend"
       orient="auto"
       refY="0"
       refX="0"
       id="Arrow2Mend-75"
       style="overflow:visible">
      <path
         id="path45132-9"
         style="font-size:12px;fill-rule:evenodd;stroke-width:0.625;stroke-linejoin:round"
         d="M 8.7185878,4.0337352 -2.2072895,0.01601326 8.7185884,-4.0017078 c -1.7454984,2.3720609 -1.7354408,5.6174519 -6e-7,8.035443 z"
         transform="scale(-0.6,-0.6)"
         inkscape:connector-curvature="0" />
    </marker>
    <marker
       inkscape:stockid="DotM"
       orient="auto"
       refY="0"
       refX="0"
       id="DotM-466"
       style="overflow:visible">
      <path
         id="path14329-32"
         d="m -2.5,-1 c 0,2.76 -2.24,5 -5,5 -2.76,0 -5,-2.24 -5,-5 0,-2.76 2.24,-5 5,-5 2.76,0 5,2.24 5,5 z"
         style="fill-rule:evenodd;stroke:#000000;stroke-width:1pt;marker-start:none;marker-end:none"
         transform="matrix(0.4,0,0,0.4,2.96,0.4)"
         inkscape:connector-curvature="0" />
    </marker>
    <marker
       inkscape:stockid="Arrow2Mend"
       orient="auto"
       refY="0"
       refX="0"
       id="marker32938"
       style="overflow:visible">
      <path
         id="path32940"
         style="font-size:12px;fill-rule:evenodd;stroke-width:0.625;stroke-linejoin:round"
         d="M 8.7185878,4.0337352 -2.2072895,0.01601326 8.7185884,-4.0017078 c -1.7454984,2.3720609 -1.7354408,5.6174519 -6e-7,8.035443 z"
         transform="scale(-0.6,-0.6)"
         inkscape:connector-curvature="0" />
    </marker>
    <marker
       inkscape:stockid="DotM"
       orient="auto"
       refY="0"
       refX="0"
       id="marker32934"
       style="overflow:visible">
      <path
         id="path32936"
         d="m -2.5,-1 c 0,2.76 -2.24,5 -5,5 -2.76,0 -5,-2.24 -5,-5 0,-2.76 2.24,-5 5,-5 2.76,0 5,2.24 5,5 z"
         style="fill-rule:evenodd;stroke:#000000;stroke-width:1pt;marker-start:none;marker-end:none"
         transform="matrix(0.4,0,0,0.4,2.96,0.4)"
         inkscape:connector-curvature="0" />
    </marker>
    <marker
       inkscape:stockid="Arrow2Mend"
       orient="auto"
       refY="0"
       refX="0"
       id="Arrow2Mend-7"
       style="overflow:visible">
      <path
         id="path45132-2"
         style="font-size:12px;fill-rule:evenodd;stroke-width:0.625;stroke-linejoin:round"
         d="M 8.7185878,4.0337352 -2.2072895,0.01601326 8.7185884,-4.0017078 c -1.7454984,2.3720609 -1.7354408,5.6174519 -6e-7,8.035443 z"
         transform="scale(-0.6,-0.6)"
         inkscape:connector-curvature="0" />
    </marker>
    <marker
       inkscape:stockid="DotM"
       orient="auto"
       refY="0"
       refX="0"
       id="DotM-46"
       style="overflow:visible">
      <path
         id="path14329-9"
         d="m -2.5,-1 c 0,2.76 -2.24,5 -5,5 -2.76,0 -5,-2.24 -5,-5 0,-2.76 2.24,-5 5,-5 2.76,0 5,2.24 5,5 z"
         style="fill-rule:evenodd;stroke:#000000;stroke-width:1pt;marker-start:none;marker-end:none"
         transform="matrix(0.4,0,0,0.4,2.96,0.4)"
         inkscape:connector-curvature="0" />
    </marker>
    <marker
       inkscape:stockid="Arrow2Mend"
       orient="auto"
       refY="0"
       refX="0"
       id="Arrow2Mend-3"
       style="overflow:visible">
      <path
         id="path45132-3"
         style="font-size:12px;fill-rule:evenodd;stroke-width:0.625;stroke-linejoin:round"
         d="M 8.7185878,4.0337352 -2.2072895,0.01601326 8.7185884,-4.0017078 c -1.7454984,2.3720609 -1.7354408,5.6174519 -6e-7,8.035443 z"
         transform="scale(-0.6,-0.6)"
         inkscape:connector-curvature="0" />
    </marker>
    <marker
       inkscape:stockid="DotM"
       orient="auto"
       refY="0"
       refX="0"
       id="DotM-42"
       style="overflow:visible">
      <path
         id="path14329-3"
         d="m -2.5,-1 c 0,2.76 -2.24,5 -5,5 -2.76,0 -5,-2.24 -5,-5 0,-2.76 2.24,-5 5,-5 2.76,0 5,2.24 5,5 z"
         style="fill-rule:evenodd;stroke:#000000;stroke-width:1pt;marker-start:none;marker-end:none"
         transform="matrix(0.4,0,0,0.4,2.96,0.4)"
         inkscape:connector-curvature="0" />
    </marker>
    <marker
       inkscape:stockid="Arrow2Mend"
       orient="auto"
       refY="0"
       refX="0"
       id="Arrow2Mend-9"
       style="overflow:visible">
      <path
         id="path45132-4"
         style="font-size:12px;fill-rule:evenodd;stroke-width:0.625;stroke-linejoin:round"
         d="M 8.7185878,4.0337352 -2.2072895,0.01601326 8.7185884,-4.0017078 c -1.7454984,2.3720609 -1.7354408,5.6174519 -6e-7,8.035443 z"
         transform="scale(-0.6,-0.6)"
         inkscape:connector-curvature="0" />
    </marker>
    <marker
       inkscape:stockid="DotM"
       orient="auto"
       refY="0"
       refX="0"
       id="DotM-4"
       style="overflow:visible">
      <path
         id="path14329-8"
         d="m -2.5,-1 c 0,2.76 -2.24,5 -5,5 -2.76,0 -5,-2.24 -5,-5 0,-2.76 2.24,-5 5,-5 2.76,0 5,2.24 5,5 z"
         style="fill-rule:evenodd;stroke:#000000;stroke-width:1pt;marker-start:none;marker-end:none"
         transform="matrix(0.4,0,0,0.4,2.96,0.4)"
         inkscape:connector-curvature="0" />
    </marker>
    <clipPath
       clipPathUnits="userSpaceOnUse"
       id="clipPath6483-5">
      <rect
         style="fill:#ffffff;fill-opacity:1;stroke:none"
         id="rect6485-2"
         width="548"
         height="280"
         x="67.578148"
         y="187.65627" />
    </clipPath>
    <clipPath
       clipPathUnits="userSpaceOnUse"
       id="clipPath6483-1-7-3-0">
      <rect
         style="fill:#ffffff;fill-opacity:1;stroke:none"
         id="rect6485-6-4-5-6"
         width="548"
         height="280"
         x="67.578148"
         y="187.65627" />
    </clipPath>
    <marker
       inkscape:stockid="Arrow2Lend"
       orient="auto"
       refY="0"
       refX="0"
       id="Arrow2Lend-0"
       style="overflow:visible">
      <path
         inkscape:connector-curvature="0"
         id="path45126-6"
         style="font-size:12px;fill-rule:evenodd;stroke-width:0.625;stroke-linejoin:round"
         d="M 8.7185878,4.0337352 -2.2072895,0.01601326 8.7185884,-4.0017078 c -1.7454984,2.3720609 -1.7354408,5.6174519 -6e-7,8.035443 z"
         transform="matrix(-1.1,0,0,-1.1,-1.1,0)" />
    </marker>
    <clipPath
       clipPathUnits="userSpaceOnUse"
       id="clipPath6483-1-7-3-9">
      <rect
         style="fill:#ffffff;fill-opacity:1;stroke:none"
         id="rect6485-6-4-5-8"
         width="548"
         height="280"
         x="67.578148"
         y="187.65627" />
    </clipPath>
    <clipPath
       clipPathUnits="userSpaceOnUse"
       id="clipPath6483-1-7-3">
      <rect
         style="fill:#ffffff;fill-opacity:1;stroke:none"
         id="rect6485-6-4-5"
         width="548"
         height="280"
         x="67.578148"
         y="187.65627" />
    </clipPath>
    <clipPath
       clipPathUnits="userSpaceOnUse"
       id="clipPath6483-1-7">
      <rect
         style="fill:#ffffff;fill-opacity:1;stroke:none"
         id="rect6485-6-4"
         width="548"
         height="280"
         x="67.578148"
         y="187.65627" />
    </clipPath>
    <clipPath
       clipPathUnits="userSpaceOnUse"
       id="clipPath6483-1">
      <rect
         style="fill:#ffffff;fill-opacity:1;stroke:none"
         id="rect6485-6"
         width="548"
         height="280"
         x="67.578148"
         y="187.65627" />
    </clipPath>
    <clipPath
       clipPathUnits="userSpaceOnUse"
       id="clipPath6483">
      <rect
         style="fill:#ffffff;fill-opacity:1;stroke:none"
         id="rect6485"
         width="548"
         height="280"
         x="67.578148"
         y="187.65627" />
    </clipPath>
    <clipPath
       id="clipPath22"
       clipPathUnits="userSpaceOnUse">
      <path
         id="path24"
         d="M 0,792 1224,792 1224,0 0,0 0,792 z"
         inkscape:connector-curvature="0" />
    </clipPath>
    <clipPath
       clipPathUnits="userSpaceOnUse"
       id="clipPath3169">
      <rect
         style="fill:#f5f5f4;fill-opacity:1;stroke:#888a85;stroke-width:2;stroke-miterlimit:4;stroke-opacity:1;stroke-dasharray:none;stroke-dashoffset:0"
         id="rect3171"
         width="748.77557"
         height="428.80975"
         x="48.992397"
         y="105.34417" />
    </clipPath>
    <marker
       inkscape:stockid="Arrow2Lend"
       orient="auto"
       refY="0"
       refX="0"
       id="Arrow2Lend"
       style="overflow:visible">
      <path
         id="path45126"
         style="font-size:12px;fill-rule:evenodd;stroke-width:0.625;stroke-linejoin:round"
         d="M 8.7185878,4.0337352 -2.2072895,0.01601326 8.7185884,-4.0017078 c -1.7454984,2.3720609 -1.7354408,5.6174519 -6e-7,8.035443 z"
         transform="matrix(-1.1,0,0,-1.1,-1.1,0)"
         inkscape:connector-curvature="0" />
    </marker>
    <marker
       inkscape:stockid="Arrow2Mend"
       orient="auto"
       refY="0"
       refX="0"
       id="Arrow2Mend"
       style="overflow:visible">
      <path
         id="path45132"
         style="font-size:12px;fill-rule:evenodd;stroke-width:0.625;stroke-linejoin:round"
         d="M 8.7185878,4.0337352 -2.2072895,0.01601326 8.7185884,-4.0017078 c -1.7454984,2.3720609 -1.7354408,5.6174519 -6e-7,8.035443 z"
         transform="scale(-0.6,-0.6)"
         inkscape:connector-curvature="0" />
    </marker>
    <marker
       inkscape:stockid="DotL"
       orient="auto"
       refY="0"
       refX="0"
       id="DotL"
       style="overflow:visible">
      <path
         id="path14326"
         d="m -2.5,-1 c 0,2.76 -2.24,5 -5,5 -2.76,0 -5,-2.24 -5,-5 0,-2.76 2.24,-5 5,-5 2.76,0 5,2.24 5,5 z"
         style="fill-rule:evenodd;stroke:#000000;stroke-width:1pt;marker-start:none;marker-end:none"
         transform="matrix(0.8,0,0,0.8,5.92,0.8)"
         inkscape:connector-curvature="0" />
    </marker>
    <marker
       inkscape:stockid="DotM"
       orient="auto"
       refY="0"
       refX="0"
       id="DotM"
       style="overflow:visible">
      <path
         id="path14329"
         d="m -2.5,-1 c 0,2.76 -2.24,5 -5,5 -2.76,0 -5,-2.24 -5,-5 0,-2.76 2.24,-5 5,-5 2.76,0 5,2.24 5,5 z"
         style="fill-rule:evenodd;stroke:#000000;stroke-width:1pt;marker-start:none;marker-end:none"
         transform="matrix(0.4,0,0,0.4,2.96,0.4)"
         inkscape:connector-curvature="0" />
    </marker>
  </defs>
  <sodipodi:namedview
     id="base"
     pagecolor="#ffffff"
     bordercolor="#666666"
     borderopacity="1.0"
     inkscape:pageopacity="0.0"
     inkscape:pageshadow="2"
     inkscape:zoom="31.678384"
     inkscape:cx="4.1865208"
     inkscape:cy="15.442686"
     inkscape:document-units="mm"
     inkscape:current-layer="layer1"
     showgrid="false"
     units="px"
     inkscape:window-width="1886"
     inkscape:window-height="691"
     inkscape:window-x="10"
     inkscape:window-y="725"
     inkscape:window-maximized="0" />
  <metadata
     id="metadata4648">
    <rdf:RDF>
      <cc:Work
         rdf:about="">
        <dc:format>image/svg+xml</dc:format>
        <dc:type
           rdf:resource="http://purl.org/dc/dcmitype/StillImage" />
        <dc:title />
      </cc:Work>
    </rdf:RDF>
  </metadata>
  <g
     inkscape:label="Layer 1"
     inkscape:groupmode="layer"
     id="layer1"
     transform="translate(0,-289.39401)">
    <path
       inkscape:connector-curvature="0"
       d="m 0.695,293.15518 v -2.14132 q 0,-0.11285 0.1000008,-0.16919 l 2.9333323,-0.78328 q 0,-0.006 0.066667,-0.006 0.066668,0 0.066668,0.006 l 2.9333322,0.78328 q 0.1,0.0562 0.1,0.16919 v 4.28265 q 0,0.11274 -0.1,0.16919 l -2.9333322,0.78329 q 0,0.006 -0.066668,0.006 -0.066667,0 -0.066667,-0.006 L 0.7950008,295.4657 Q 0.695,295.4094 0.695,295.29651"
       id="path6-3"
       style="fill:#d3d7cf;fill-opacity:1;stroke:none;stroke-width:0.04333996" />
    <path
       inkscape:connector-curvature="0"
       d="m 0.79223735,293.15966 v -2.07191 q 0,-0.1092 0.0967746,-0.16371 l 2.83870895,-0.75789 q 0,-0.006 0.064517,-0.006 0.064517,0 0.064517,0.006 l 2.838709,0.75789 q 0.096774,0.0544 0.096774,0.16371 v 4.14383 q 0,0.10909 -0.096774,0.16371 l -2.838709,0.7579 q 0,0.006 -0.064517,0.006 -0.064517,0 -0.064517,-0.006 l -2.83870895,-0.7579 q -0.0967746,-0.0545 -0.0967746,-0.16371"
       id="path6"
       style="fill:#4f3527;fill-opacity:1;stroke:none;stroke-width:0.04193855" />
    <path
       inkscape:connector-curvature="0"
       id="rect3381-0"
       d="m 3.4775455,291.26454 c -0.06157,0 -0.111134,0.0496 -0.111134,0.11113 v 0.28247 c -0.143754,0.0357 -0.282117,0.0931 -0.41212,0.17133 l -0.199114,-0.19912 c -0.04353,-0.0435 -0.113904,-0.0435 -0.157439,0 l -0.361184,0.36119 c -0.04353,0.0435 -0.04353,0.1139 0,0.15744 l 0.199115,0.19911 c -0.0776,0.12962 -0.131401,0.26956 -0.166701,0.41212 h -0.282464 c -0.06157,0 -0.111133,0.0496 -0.111133,0.11114 v 0.50935 c 0,0.0616 0.04956,0.11114 0.111133,0.11114 h 0.277834 c 0.03568,0.14388 0.09306,0.28201 0.171331,0.41212 l -0.199115,0.19912 c -0.04353,0.0435 -0.04353,0.1139 0,0.15744 l 0.361184,0.36118 c 0.04353,0.0435 0.113904,0.0435 0.157439,0 l 0.199114,-0.19912 c 0.130571,0.0788 0.268341,0.131 0.41212,0.1667 v 0.28247 c 0,0.0616 0.04957,0.11113 0.111134,0.11113 h 0.509362 c 0.06157,0 0.111133,-0.0496 0.111133,-0.11113 v -0.28247 c 0.144087,-0.0355 0.2818019,-0.0885 0.4121199,-0.1667 l 0.1991142,0.19912 c 0.043535,0.0435 0.113904,0.0435 0.1574392,0 l 0.3611837,-0.36118 c 0.043535,-0.0435 0.043535,-0.11391 0,-0.15744 l -0.1991142,-0.19912 c 0.07837,-0.12988 0.1355622,-0.26911 0.1713308,-0.41212 h 0.2824643 c 0.061568,0 0.1111334,-0.0496 0.1111334,-0.11114 v -0.50935 c 0,-0.0616 -0.049565,-0.11114 -0.1111334,-0.11114 H 5.2001141 c -0.035471,-0.14289 -0.093849,-0.28279 -0.1713308,-0.41212 l 0.1991142,-0.19911 c 0.043535,-0.0435 0.043535,-0.1139 0,-0.15744 l -0.3611837,-0.36119 c -0.043535,-0.0435 -0.1139039,-0.0435 -0.1574392,0 l -0.1991142,0.19912 c -0.1301232,-0.0781 -0.2689239,-0.1359 -0.4121199,-0.17133 v -0.28247 c 0,-0.0616 -0.04957,-0.11113 -0.111133,-0.11113 z m 0.236158,1.15764 c 0.180066,-0.005 0.3637,0.0561 0.504732,0.18985 0.2820629,0.26748 0.2952623,0.71351 0.02778,0.99557 -0.266819,0.28137 -0.713273,0.29362 -0.995571,0.0278 -0.282063,-0.26748 -0.295262,-0.7135 -0.02778,-0.99556 0.13374,-0.14104 0.310774,-0.21286 0.490839,-0.21764 z"
       style="fill:#d3d7cf;fill-opacity:1;stroke:none;stroke-width:0.11619814" />
  </g>
</svg>
