<?xml version="1.0" encoding="UTF-8" standalone="no"?>
<!-- Created with Inkscape (http://www.inkscape.org/) -->

<svg
   xmlns:dc="http://purl.org/dc/elements/1.1/"
   xmlns:cc="http://creativecommons.org/ns#"
   xmlns:rdf="http://www.w3.org/1999/02/22-rdf-syntax-ns#"
   xmlns:svg="http://www.w3.org/2000/svg"
   xmlns="http://www.w3.org/2000/svg"
   xmlns:sodipodi="http://sodipodi.sourceforge.net/DTD/sodipodi-0.dtd"
   xmlns:inkscape="http://www.inkscape.org/namespaces/inkscape"
   width="28.747"
   height="28.747"
   viewBox="0 0 7.6059768 7.6059772"
   version="1.1"
   id="svg4651"
   inkscape:version="0.92.4 5da689c313, 2019-01-14"
   sodipodi:docname="green-tram.svg">
  <defs
     id="defs4645" />
  <sodipodi:namedview
     id="base"
     pagecolor="#ffffff"
     bordercolor="#666666"
     borderopacity="1.0"
     inkscape:pageopacity="0.0"
     inkscape:pageshadow="2"
     inkscape:zoom="11.2"
     inkscape:cx="-10.179942"
     inkscape:cy="2.8306088"
     inkscape:document-units="mm"
     inkscape:current-layer="layer1"
     showgrid="false"
     units="px"
     inkscape:window-width="1886"
     inkscape:window-height="691"
     inkscape:window-x="10"
     inkscape:window-y="725"
     inkscape:window-maximized="0" />
  <metadata
     id="metadata4648">
    <rdf:RDF>
      <cc:Work
         rdf:about="">
        <dc:format>image/svg+xml</dc:format>
        <dc:type
           rdf:resource="http://purl.org/dc/dcmitype/StillImage" />
        <dc:title />
      </cc:Work>
    </rdf:RDF>
  </metadata>
  <g
     inkscape:label="Layer 1"
     inkscape:groupmode="layer"
     id="layer1"
     transform="translate(0,-289.39401)">
    <path
       inkscape:connector-curvature="0"
       d="m 0.695,293.15518 v -2.14132 q 0,-0.11285 0.1000008,-0.16919 l 2.9333323,-0.78328 q 0,-0.006 0.066667,-0.006 0.066668,0 0.066668,0.006 l 2.9333322,0.78328 q 0.1,0.0562 0.1,0.16919 v 4.28265 q 0,0.11274 -0.1,0.16919 l -2.9333322,0.78329 q 0,0.006 -0.066668,0.006 -0.066667,0 -0.066667,-0.006 L 0.7950008,295.4657 Q 0.695,295.4094 0.695,295.29651"
       id="path6-3"
       style="fill:#d3d7cf;fill-opacity:1;stroke:none;stroke-width:0.04333996" />
    <path
       inkscape:connector-curvature="0"
       d="m 0.79223735,293.15966 v -2.07191 q 0,-0.1092 0.0967746,-0.16371 l 2.83870895,-0.75789 q 0,-0.006 0.064517,-0.006 0.064517,0 0.064517,0.006 l 2.838709,0.75789 q 0.096774,0.0544 0.096774,0.16371 v 4.14383 q 0,0.10909 -0.096774,0.16371 l -2.838709,0.7579 q 0,0.006 -0.064517,0.006 -0.064517,0 -0.064517,-0.006 l -2.83870895,-0.7579 q -0.0967746,-0.0545 -0.0967746,-0.16371"
       id="path6"
       style="fill:#524e11;fill-opacity:1;stroke:none;stroke-width:0.04193855" />
    <path
       style="fill:#d3d7cf;fill-opacity:1;fill-rule:nonzero;stroke:none;stroke-width:0.05747295"
       d="m 3.7212482,291.88479 c -0.033374,-8.9e-4 -0.061374,0.0272 -0.061603,0.0616 v 0.0777 l -0.369623,0.25701 0.3590264,0.25719 H 3.3543193 c 0,0 -0.032038,-0.005 -0.066992,0.0295 l -0.042746,0.0429 H 1.8061417 c 0,0 -0.092777,-4.5e-4 -0.1178192,0.0963 l -0.1232081,0.49302 v 0.65877 h 0.3669291 v 0.0697 h 0.2169603 c 0,0 0.00938,0.14516 0.1526624,0.14457 0.141446,4.5e-4 0.1499689,-0.14457 0.1499689,-0.14457 h 0.2036695 c 0,0 0.00977,0.14516 0.1526625,0.14457 0.1418312,4.5e-4 0.1499684,-0.14457 0.1499684,-0.14457 h 0.8114462 0.8114461 c 0,0 0.00814,0.14515 0.1499684,0.14457 0.1428988,4.5e-4 0.1526626,-0.14457 0.1526626,-0.14457 h 0.2036698 c 0,0 0.00852,0.14515 0.1499683,0.14457 0.1432735,4.5e-4 0.1526626,-0.14457 0.1526626,-0.14457 h 0.2169602 v -0.0697 h 0.3669288 v -0.65877 l -0.1232067,-0.49302 c -0.025043,-0.0968 -0.1178192,-0.0963 -0.1178192,-0.0963 H 4.2941817 l -0.042746,-0.0429 c -0.034953,-0.0343 -0.066992,-0.0295 -0.066992,-0.0295 H 3.8897153 l 0.3590262,-0.25719 -0.3696229,-0.25701 v -0.0777 c -2.257e-4,-0.0344 -0.02823,-0.0624 -0.061603,-0.0616 h -0.048134 z m -1.7462795,0.90806 c 0.033614,8.9e-4 0.061173,0.0284 0.061603,0.0616 v 0.28126 c -4.277e-4,0.0346 -0.02799,0.062 -0.061603,0.0616 H 1.7955454 c -0.035303,4.5e-4 -0.06289,-0.027 -0.061603,-0.0616 l 0.072201,-0.28126 c 0,0 0.0065,-0.0591 0.061603,-0.0589 z m 0.2383331,0 h 0.1688268 c 0.033696,8.9e-4 0.061173,0.0284 0.061603,0.0616 v 0.86784 c -3.445e-4,0.034 -0.027909,0.0616 -0.061603,0.0616 H 2.2133018 c -0.03367,0 -0.061173,-0.0276 -0.061603,-0.0616 v -0.86784 c 3.683e-4,-0.0331 0.027934,-0.0606 0.061603,-0.0616 z m 0.3669289,0 h 0.1661328 c 0.034874,8.9e-4 0.06246,0.0284 0.061603,0.0616 v 0.86784 c 8.335e-4,0.034 -0.02673,0.0616 -0.061603,0.0616 H 2.5802307 c -0.03517,0 -0.062676,-0.0276 -0.061603,-0.0616 v -0.86784 c -0.00113,-0.0331 0.026435,-0.0606 0.061603,-0.0616 z m 0.3803991,0 h 0.3856073 c 0.033106,8.9e-4 0.060748,0.0284 0.061603,0.0616 v 0.28126 c -9.405e-4,0.0346 -0.028497,0.062 -0.061603,0.0616 H 2.9606298 c -0.032998,4.5e-4 -0.060535,-0.027 -0.061603,-0.0616 v -0.28126 c 0.00105,-0.0331 0.028605,-0.0606 0.061603,-0.0616 z m 0.5973594,0 h 0.2113925 0.2113928 c 0.034874,8.9e-4 0.062406,0.0284 0.061603,0.0616 v 0.28126 c 8.558e-4,0.0346 -0.02673,0.062 -0.061603,0.0616 H 3.7693817 3.5579892 c -0.034874,4.5e-4 -0.06246,-0.027 -0.061603,-0.0616 v -0.28126 c -8.069e-4,-0.0331 0.02673,-0.0606 0.061603,-0.0616 z m 0.6345371,0 h 0.3856076 c 0.032998,8.9e-4 0.060561,0.0284 0.061603,0.0616 v 0.28126 c -0.00107,0.0346 -0.028605,0.062 -0.061603,0.0616 H 4.1925263 c -0.033106,4.5e-4 -0.060665,-0.027 -0.061603,-0.0616 v -0.28126 c 8.558e-4,-0.0331 0.028497,-0.0606 0.061603,-0.0616 z m 0.5998739,0 H 4.958533 c 0.03517,8.9e-4 0.062729,0.0284 0.061603,0.0616 v 0.86784 c 0.00107,0.034 -0.026433,0.0616 -0.061603,0.0616 H 4.7924002 c -0.034874,0 -0.062434,-0.0276 -0.061603,-0.0616 v -0.86784 c -8.559e-4,-0.0331 0.02673,-0.0606 0.061603,-0.0616 z m 0.3642348,0 h 0.1688266 c 0.03367,8.9e-4 0.06123,0.0284 0.061603,0.0616 v 0.86784 c -4.276e-4,0.034 -0.027934,0.0616 -0.061603,0.0616 H 5.156635 c -0.033696,0 -0.061254,-0.0276 -0.061603,-0.0616 v -0.86784 c 4.277e-4,-0.0331 0.027909,-0.0606 0.061603,-0.0616 z m 0.4071596,0 0.1072233,0.003 c 0.055098,-2.4e-4 0.061605,0.0589 0.061605,0.0589 l 0.072201,0.28126 c 0.00128,0.0346 -0.026302,0.062 -0.061605,0.0616 h -0.179424 c -0.033613,4.5e-4 -0.061172,-0.027 -0.061603,-0.0616 v -0.28126 c 4.77e-4,-0.0331 0.02799,-0.0606 0.061603,-0.0616 z"
       id="path18"
       inkscape:connector-curvature="0" />
  </g>
</svg>
