<?xml version="1.0" encoding="UTF-8" standalone="no"?>
<!-- Created with Inkscape (http://www.inkscape.org/) -->

<svg
   xmlns:dc="http://purl.org/dc/elements/1.1/"
   xmlns:cc="http://creativecommons.org/ns#"
   xmlns:rdf="http://www.w3.org/1999/02/22-rdf-syntax-ns#"
   xmlns:svg="http://www.w3.org/2000/svg"
   xmlns="http://www.w3.org/2000/svg"
   xmlns:sodipodi="http://sodipodi.sourceforge.net/DTD/sodipodi-0.dtd"
   xmlns:inkscape="http://www.inkscape.org/namespaces/inkscape"
   width="28.747"
   height="28.747"
   viewBox="0 0 7.6059768 7.6059772"
   version="1.1"
   id="svg4651"
   inkscape:version="0.92.4 5da689c313, 2019-01-14"
   sodipodi:docname="green-letter.svg">
  <defs
     id="defs4645" />
  <sodipodi:namedview
     id="base"
     pagecolor="#ffffff"
     bordercolor="#666666"
     borderopacity="1.0"
     inkscape:pageopacity="0.0"
     inkscape:pageshadow="2"
     inkscape:zoom="15.839192"
     inkscape:cx="11.961629"
     inkscape:cy="9.9364893"
     inkscape:document-units="mm"
     inkscape:current-layer="layer1"
     showgrid="false"
     units="px"
     inkscape:window-width="1886"
     inkscape:window-height="691"
     inkscape:window-x="10"
     inkscape:window-y="725"
     inkscape:window-maximized="0" />
  <metadata
     id="metadata4648">
    <rdf:RDF>
      <cc:Work
         rdf:about="">
        <dc:format>image/svg+xml</dc:format>
        <dc:type
           rdf:resource="http://purl.org/dc/dcmitype/StillImage" />
        <dc:title />
      </cc:Work>
    </rdf:RDF>
  </metadata>
  <g
     inkscape:label="Layer 1"
     inkscape:groupmode="layer"
     id="layer1"
     transform="translate(0,-289.39401)">
    <path
       inkscape:connector-curvature="0"
       d="m 0.695,293.15518 v -2.14132 q 0,-0.11285 0.1000008,-0.16919 l 2.9333323,-0.78328 q 0,-0.006 0.066667,-0.006 0.066668,0 0.066668,0.006 l 2.9333322,0.78328 q 0.1,0.0562 0.1,0.16919 v 4.28265 q 0,0.11274 -0.1,0.16919 l -2.9333322,0.78329 q 0,0.006 -0.066668,0.006 -0.066667,0 -0.066667,-0.006 L 0.7950008,295.4657 Q 0.695,295.4094 0.695,295.29651"
       id="path6-3"
       style="fill:#d3d7cf;fill-opacity:1;stroke:none;stroke-width:0.04333996" />
    <path
       inkscape:connector-curvature="0"
       d="m 0.79223735,293.15966 v -2.07191 q 0,-0.1092 0.0967746,-0.16371 l 2.83870895,-0.75789 q 0,-0.006 0.064517,-0.006 0.064517,0 0.064517,0.006 l 2.838709,0.75789 q 0.096774,0.0544 0.096774,0.16371 v 4.14383 q 0,0.10909 -0.096774,0.16371 l -2.838709,0.7579 q 0,0.006 -0.064517,0.006 -0.064517,0 -0.064517,-0.006 l -2.83870895,-0.7579 q -0.0967746,-0.0545 -0.0967746,-0.16371"
       id="path6"
       style="fill:#524e11;fill-opacity:1;stroke:none;stroke-width:0.04193855" />
    <g
       aria-label="a"
       style="font-style:normal;font-variant:normal;font-weight:normal;font-stretch:normal;font-size:5.44973373px;line-height:1.25;font-family:Gidole;-inkscape-font-specification:Gidole;text-align:end;letter-spacing:0px;word-spacing:0px;text-anchor:end;fill:#d3d7cf;fill-opacity:1;stroke:none;stroke-width:0.51091248"
       id="text817">
      <path
         d="m 4.3418475,294.31869 q -0.3778624,0.2049 -0.6838777,0.2049 -0.3060153,0 -0.5242175,-0.0559 -0.2182023,-0.0585 -0.3698794,-0.17031 -0.3086763,-0.22618 -0.3086763,-0.6546 0,-0.38319 0.3778624,-0.63864 0.4097944,-0.27675 1.1122991,-0.27675 l 0.1064401,0.003 q 0.031932,0.003 0.071847,0.005 0.039915,0 0.071847,0.005 -0.021288,-0.42576 -0.3672184,-0.49761 -0.1144231,-0.024 -0.2448123,-0.024 -0.1277281,0 -0.2527952,0.024 -0.1224061,0.0213 -0.2394903,0.0585 -0.2581172,0.0825 -0.3698794,0.18893 l -0.00798,-0.005 -0.07983,-0.58808 q 0.4709975,-0.24747 1.0298081,-0.24747 0.8674869,0 1.1096382,0.62533 0.077169,0.19958 0.077169,0.44971 v 0.96328 q 0,0.30868 0.2182022,0.42044 l -0.4816415,0.44173 q -0.1516772,-0.0798 -0.2448123,-0.23151 z M 4.1981534,293.2197 q -0.071847,-0.0133 -0.1490162,-0.0133 H 3.9426971 q -0.5880816,0 -0.7477418,0.26078 -0.047898,0.0772 -0.047898,0.16232 0,0.0851 0.029271,0.15168 0.031932,0.0639 0.1037791,0.10644 0.1383722,0.0798 0.4097945,0.0798 0.2740832,0 0.5109125,-0.13039 -0.00266,-0.0293 -0.00266,-0.0612 z"
         style="font-style:normal;font-variant:normal;font-weight:normal;font-stretch:normal;font-family:HammersmithOne;-inkscape-font-specification:HammersmithOne;fill:#d3d7cf;fill-opacity:1;stroke-width:0.51091248"
         id="path819" />
    </g>
  </g>
</svg>
