<?xml version="1.0" encoding="UTF-8" standalone="no"?>
<!-- Created with Inkscape (http://www.inkscape.org/) -->

<svg
   width="28.747"
   height="28.747"
   viewBox="0 0 7.6059768 7.6059772"
   version="1.1"
   id="svg4651"
   inkscape:version="1.1 (c4e8f9ed74, 2021-05-24)"
   sodipodi:docname="amari-aikon.svg"
   xmlns:inkscape="http://www.inkscape.org/namespaces/inkscape"
   xmlns:sodipodi="http://sodipodi.sourceforge.net/DTD/sodipodi-0.dtd"
   xmlns="http://www.w3.org/2000/svg"
   xmlns:svg="http://www.w3.org/2000/svg"
   xmlns:rdf="http://www.w3.org/1999/02/22-rdf-syntax-ns#"
   xmlns:cc="http://creativecommons.org/ns#"
   xmlns:dc="http://purl.org/dc/elements/1.1/">
  <defs
     id="defs4645" />
  <sodipodi:namedview
     id="base"
     pagecolor="#ffffff"
     bordercolor="#666666"
     borderopacity="1.0"
     inkscape:pageopacity="0.0"
     inkscape:pageshadow="2"
     inkscape:zoom="16"
     inkscape:cx="5.875"
     inkscape:cy="18.78125"
     inkscape:document-units="mm"
     inkscape:current-layer="layer1"
     showgrid="false"
     units="px"
     inkscape:window-width="1886"
     inkscape:window-height="677"
     inkscape:window-x="10"
     inkscape:window-y="711"
     inkscape:window-maximized="0"
     inkscape:pagecheckerboard="0" />
  <metadata
     id="metadata4648">
    <rdf:RDF>
      <cc:Work
         rdf:about="">
        <dc:format>image/svg+xml</dc:format>
        <dc:type
           rdf:resource="http://purl.org/dc/dcmitype/StillImage" />
      </cc:Work>
    </rdf:RDF>
  </metadata>
  <g
     inkscape:label="Layer 1"
     inkscape:groupmode="layer"
     id="layer1"
     transform="translate(0,-289.39401)">
    <path
       inkscape:connector-curvature="0"
       d="m 0.695,293.15518 v -2.14132 q 0,-0.11285 0.10000082,-0.16919 l 2.93333228,-0.78328 q 0,-0.006 0.066667,-0.006 0.066668,0 0.066668,0.006 l 2.9333322,0.78328 q 0.1,0.0562 0.1,0.16919 v 4.28265 q 0,0.11274 -0.1,0.16919 l -2.9333322,0.78329 q 0,0.006 -0.066668,0.006 -0.066667,0 -0.066667,-0.006 L 0.79500082,295.4657 Q 0.695,295.4094 0.695,295.29651"
       id="path6-3"
       style="fill:#d3d7cf;fill-opacity:1;stroke:none;stroke-width:0.04333996" />
    <path
       inkscape:connector-curvature="0"
       d="m 0.79223735,293.15966 v -2.07191 q 0,-0.1092 0.0967746,-0.16371 l 2.83870895,-0.75789 q 0,-0.006 0.064517,-0.006 0.064517,0 0.064517,0.006 l 2.838709,0.75789 q 0.096774,0.0544 0.096774,0.16371 v 4.14383 q 0,0.10909 -0.096774,0.16371 l -2.838709,0.7579 q 0,0.006 -0.064517,0.006 -0.064517,0 -0.064517,-0.006 l -2.83870895,-0.7579 q -0.0967746,-0.0545 -0.0967746,-0.16371"
       id="path6"
       style="fill:#524e11;fill-opacity:1;stroke:none;stroke-width:0.04193855" />
    <g
       id="g2492"
       transform="matrix(0.06501871,0,0,0.06501871,-9.8215459,279.89606)"
       style="fill:none;stroke:#d3d7cf;stroke-width:2.15323;stroke-miterlimit:4;stroke-dasharray:none;stroke-opacity:1">
      <g
         id="g21453"
         transform="translate(0.7052948,-147.40661)"
         style="fill:none;stroke:#d3d7cf;stroke-width:2.15323;stroke-miterlimit:4;stroke-dasharray:none;stroke-opacity:1">
        <rect
           style="opacity:1;fill:none;fill-opacity:1;stroke:#d3d7cf;stroke-width:2.15323;stroke-linejoin:round;stroke-miterlimit:4;stroke-dasharray:none;stroke-opacity:1"
           id="rect3451"
           y="326.72989"
           x="179.45419"
           ry="18.650105"
           rx="18.650105"
           height="47.966698"
           width="58.314877" />
        <path
           style="opacity:1;fill:none;fill-rule:evenodd;stroke:#d3d7cf;stroke-width:2.15323;stroke-linecap:butt;stroke-linejoin:miter;stroke-miterlimit:4;stroke-dasharray:none;stroke-opacity:1"
           id="path3457"
           d="m 183.77156,334.10484 c 6.33206,-0.12595 15.886,-0.55863 18.99454,-0.25521 4.91811,0.48004 3.53655,8.20266 -1.9255,7.70508 l 0.15465,18.55812 c 6.85427,-0.33827 5.42898,7.40913 -0.17247,7.4162 h -17.41944" />
        <path
           style="opacity:1;fill:none;fill-rule:evenodd;stroke:#d3d7cf;stroke-width:2.15323;stroke-linecap:butt;stroke-linejoin:miter;stroke-miterlimit:4;stroke-dasharray:none;stroke-opacity:1"
           id="path3459"
           d="M 200.45452,355.18195 H 183.52378" />
        <path
           style="opacity:1;fill:none;fill-rule:evenodd;stroke:#d3d7cf;stroke-width:2.15323;stroke-linecap:butt;stroke-linejoin:miter;stroke-miterlimit:4;stroke-dasharray:none;stroke-opacity:1"
           id="path3461"
           d="M 200.36658,345.37161 H 183.13702" />
        <path
           style="opacity:1;fill:none;fill-rule:evenodd;stroke:#d3d7cf;stroke-width:2.15323;stroke-linecap:butt;stroke-linejoin:miter;stroke-miterlimit:4;stroke-dasharray:none;stroke-opacity:1"
           id="path3463"
           d="m 197.76459,367.20753 v 7.43687" />
        <path
           style="opacity:1;fill:none;fill-rule:evenodd;stroke:#d3d7cf;stroke-width:2.15323;stroke-linecap:butt;stroke-linejoin:miter;stroke-miterlimit:4;stroke-dasharray:none;stroke-opacity:1"
           id="path3465"
           d="m 197.60636,367.52399 h 11.07619" />
        <path
           style="opacity:1;fill:none;fill-rule:evenodd;stroke:#d3d7cf;stroke-width:2.15323;stroke-linecap:butt;stroke-linejoin:miter;stroke-miterlimit:4;stroke-dasharray:none;stroke-opacity:1"
           id="path3467"
           d="m 202.68086,367.6098 c -16.53184,0 -19.62255,-8.50108 -19.62255,-17.0801 0,-8.90732 2.18532,-16.63655 18.3567,-16.63655 6.91609,-0.15823 5.527,-5.15627 5.527,-6.6765" />
        <path
           style="opacity:1;fill:none;fill-rule:evenodd;stroke:#d3d7cf;stroke-width:2.15323;stroke-linecap:butt;stroke-linejoin:miter;stroke-miterlimit:4;stroke-dasharray:none;stroke-opacity:1"
           id="path3471"
           d="m 233.484,334.16238 c -6.33206,-0.12595 -15.886,-0.55863 -18.99454,-0.25521 -4.91811,0.48004 -3.53655,8.20266 1.9255,7.70508 l -0.15465,18.55812 c -6.85427,-0.33827 -5.42898,7.40913 0.17247,7.4162 h 17.41944" />
        <path
           style="opacity:1;fill:none;fill-rule:evenodd;stroke:#d3d7cf;stroke-width:2.15323;stroke-linecap:butt;stroke-linejoin:miter;stroke-miterlimit:4;stroke-dasharray:none;stroke-opacity:1"
           id="path3473"
           d="m 216.80104,355.23949 h 16.93074" />
        <path
           style="opacity:1;fill:none;fill-rule:evenodd;stroke:#d3d7cf;stroke-width:2.15323;stroke-linecap:butt;stroke-linejoin:miter;stroke-miterlimit:4;stroke-dasharray:none;stroke-opacity:1"
           id="path3475"
           d="m 216.88898,345.42915 h 17.22956" />
        <path
           style="opacity:1;fill:none;fill-rule:evenodd;stroke:#d3d7cf;stroke-width:2.15323;stroke-linecap:butt;stroke-linejoin:miter;stroke-miterlimit:4;stroke-dasharray:none;stroke-opacity:1"
           id="path3477"
           d="m 219.49097,367.26507 v 7.43687" />
        <path
           style="opacity:1;fill:none;fill-rule:evenodd;stroke:#d3d7cf;stroke-width:2.15323;stroke-linecap:butt;stroke-linejoin:miter;stroke-miterlimit:4;stroke-dasharray:none;stroke-opacity:1"
           id="path3479"
           d="M 219.6492,367.58153 H 208.57301" />
        <path
           style="opacity:1;fill:none;fill-rule:evenodd;stroke:#d3d7cf;stroke-width:2.15323;stroke-linecap:butt;stroke-linejoin:miter;stroke-miterlimit:4;stroke-dasharray:none;stroke-opacity:1"
           id="path3481"
           d="m 214.5747,367.66734 c 16.53184,0 19.62255,-8.50108 19.62255,-17.0801 0,-8.90732 -2.18532,-16.63655 -18.3567,-16.63655 -6.91609,-0.15823 -5.77184,-4.91143 -5.77184,-6.43166" />
      </g>
    </g>
  </g>
</svg>
