<?xml version="1.0" encoding="UTF-8" standalone="no"?>
<!-- Created with Inkscape (http://www.inkscape.org/) -->

<svg
   xmlns:dc="http://purl.org/dc/elements/1.1/"
   xmlns:cc="http://creativecommons.org/ns#"
   xmlns:rdf="http://www.w3.org/1999/02/22-rdf-syntax-ns#"
   xmlns:svg="http://www.w3.org/2000/svg"
   xmlns="http://www.w3.org/2000/svg"
   xmlns:sodipodi="http://sodipodi.sourceforge.net/DTD/sodipodi-0.dtd"
   xmlns:inkscape="http://www.inkscape.org/namespaces/inkscape"
   width="28.747"
   height="28.747"
   viewBox="0 0 7.6059768 7.6059772"
   version="1.1"
   id="svg4651"
   inkscape:version="0.92.4 5da689c313, 2019-01-14"
   sodipodi:docname="gray-shop.svg">
  <defs
     id="defs4645" />
  <sodipodi:namedview
     id="base"
     pagecolor="#ffffff"
     bordercolor="#666666"
     borderopacity="1.0"
     inkscape:pageopacity="0.0"
     inkscape:pageshadow="2"
     inkscape:zoom="15.839192"
     inkscape:cx="10.093809"
     inkscape:cy="17.893576"
     inkscape:document-units="mm"
     inkscape:current-layer="layer1"
     showgrid="false"
     units="px"
     inkscape:window-width="1886"
     inkscape:window-height="691"
     inkscape:window-x="10"
     inkscape:window-y="725"
     inkscape:window-maximized="0" />
  <metadata
     id="metadata4648">
    <rdf:RDF>
      <cc:Work
         rdf:about="">
        <dc:format>image/svg+xml</dc:format>
        <dc:type
           rdf:resource="http://purl.org/dc/dcmitype/StillImage" />
        <dc:title />
      </cc:Work>
    </rdf:RDF>
  </metadata>
  <g
     inkscape:label="Layer 1"
     inkscape:groupmode="layer"
     id="layer1"
     transform="translate(0,-289.39401)">
    <path
       inkscape:connector-curvature="0"
       d="m 0.695,293.15518 v -2.14132 q 0,-0.11285 0.1000008,-0.16919 l 2.9333323,-0.78328 q 0,-0.006 0.066667,-0.006 0.066668,0 0.066668,0.006 l 2.9333322,0.78328 q 0.1,0.0562 0.1,0.16919 v 4.28265 q 0,0.11274 -0.1,0.16919 l -2.9333322,0.78329 q 0,0.006 -0.066668,0.006 -0.066667,0 -0.066667,-0.006 L 0.7950008,295.4657 Q 0.695,295.4094 0.695,295.29651"
       id="path6-3"
       style="fill:#d3d7cf;fill-opacity:1;stroke:none;stroke-width:0.04333996" />
    <path
       inkscape:connector-curvature="0"
       d="m 0.79223735,293.15966 v -2.07191 q 0,-0.1092 0.0967746,-0.16371 l 2.83870895,-0.75789 q 0,-0.006 0.064517,-0.006 0.064517,0 0.064517,0.006 l 2.838709,0.75789 q 0.096774,0.0544 0.096774,0.16371 v 4.14383 q 0,0.10909 -0.096774,0.16371 l -2.838709,0.7579 q 0,0.006 -0.064517,0.006 -0.064517,0 -0.064517,-0.006 l -2.83870895,-0.7579 q -0.0967746,-0.0545 -0.0967746,-0.16371"
       id="path6"
       style="fill:#686d70;fill-opacity:1;stroke:none;stroke-width:0.04193855" />
    <path
       id="path815"
       d="M 5.2075358,292.46367 H 4.8065393 l -0.1047647,-0.62498 c -0.042194,-0.19496 -0.1900939,-0.34986 -0.3829336,-0.40098 -0.094143,-0.0336 -0.1927674,-0.0531 -0.2926191,-0.0578 H 3.4265332 c -0.098298,0.003 -0.1956575,0.0198 -0.2890066,0.0505 -0.1961993,0.0511 -0.3461936,0.2095 -0.3865462,0.40822 l -0.1047647,0.62504 h -0.422672 c -0.073805,0.001 -0.1320041,0.0633 -0.1300161,0.13721 3.613e-4,0.0136 0.00279,0.027 0.00718,0.0399 l 0.4371223,1.69791 v 0 c 0.048915,0.16997 0.2025213,0.28846 0.379321,0.29261 h 1.6184369 c 0.1781363,-0.003 0.3336219,-0.12138 0.3829336,-0.29261 v 0 l 0.4335097,-1.69791 c 0.024638,-0.0696 -0.011783,-0.14599 -0.081355,-0.17062 -0.020231,-0.007 -0.041906,-0.01 -0.063148,-0.007 z m -2.2867641,0 0.09754,-0.58163 c 0.022037,-0.0971 0.1005019,-0.17126 0.198692,-0.18785 0.066688,-0.0213 0.1359418,-0.0334 0.2059171,-0.0362 H 4.026222 c 0.069976,0.003 0.1392288,0.0148 0.2059171,0.0362 0.09819,0.0167 0.1766552,0.0908 0.1986919,0.18785 l 0.1011519,0.58163 z"
       inkscape:connector-curvature="0"
       style="fill:#d3d7cf;fill-opacity:1;stroke-width:0.36125812" />
  </g>
</svg>
