<?xml version="1.0" encoding="UTF-8" standalone="no"?>
<!-- Created with Inkscape (http://www.inkscape.org/) -->

<svg
   xmlns:dc="http://purl.org/dc/elements/1.1/"
   xmlns:cc="http://creativecommons.org/ns#"
   xmlns:rdf="http://www.w3.org/1999/02/22-rdf-syntax-ns#"
   xmlns:svg="http://www.w3.org/2000/svg"
   xmlns="http://www.w3.org/2000/svg"
   xmlns:sodipodi="http://sodipodi.sourceforge.net/DTD/sodipodi-0.dtd"
   xmlns:inkscape="http://www.inkscape.org/namespaces/inkscape"
   width="28.747"
   height="28.747"
   viewBox="0 0 7.6059768 7.6059772"
   version="1.1"
   id="svg4651"
   inkscape:version="0.92.4 5da689c313, 2019-01-14"
   sodipodi:docname="beaver-bike.svg">
  <defs
     id="defs4645" />
  <sodipodi:namedview
     id="base"
     pagecolor="#ffffff"
     bordercolor="#666666"
     borderopacity="1.0"
     inkscape:pageopacity="0.0"
     inkscape:pageshadow="2"
     inkscape:zoom="7.919596"
     inkscape:cx="-29.930861"
     inkscape:cy="-5.8893859"
     inkscape:document-units="mm"
     inkscape:current-layer="layer1"
     showgrid="false"
     units="px"
     inkscape:window-width="1886"
     inkscape:window-height="691"
     inkscape:window-x="10"
     inkscape:window-y="725"
     inkscape:window-maximized="0" />
  <metadata
     id="metadata4648">
    <rdf:RDF>
      <cc:Work
         rdf:about="">
        <dc:format>image/svg+xml</dc:format>
        <dc:type
           rdf:resource="http://purl.org/dc/dcmitype/StillImage" />
        <dc:title />
      </cc:Work>
    </rdf:RDF>
  </metadata>
  <g
     inkscape:label="Layer 1"
     inkscape:groupmode="layer"
     id="layer1"
     transform="translate(0,-289.39401)">
    <path
       inkscape:connector-curvature="0"
       d="m 0.695,293.15518 v -2.14132 q 0,-0.11285 0.10000082,-0.16919 l 2.93333228,-0.78328 q 0,-0.006 0.066667,-0.006 0.066668,0 0.066668,0.006 l 2.9333322,0.78328 q 0.1,0.0562 0.1,0.16919 v 4.28265 q 0,0.11274 -0.1,0.16919 l -2.9333322,0.78329 q 0,0.006 -0.066668,0.006 -0.066667,0 -0.066667,-0.006 L 0.79500082,295.4657 Q 0.695,295.4094 0.695,295.29651"
       id="path6-3"
       style="fill:#d3d7cf;fill-opacity:1;stroke:none;stroke-width:0.04333996" />
    <path
       inkscape:connector-curvature="0"
       d="m 0.79223735,293.15966 v -2.07191 q 0,-0.1092 0.0967746,-0.16371 l 2.83870895,-0.75789 q 0,-0.006 0.064517,-0.006 0.064517,0 0.064517,0.006 l 2.838709,0.75789 q 0.096774,0.0544 0.096774,0.16371 v 4.14383 q 0,0.10909 -0.096774,0.16371 l -2.838709,0.7579 q 0,0.006 -0.064517,0.006 -0.064517,0 -0.064517,-0.006 l -2.83870895,-0.7579 q -0.0967746,-0.0545 -0.0967746,-0.16371"
       id="path6"
       style="fill:#56514d;fill-opacity:1;stroke:none;stroke-width:0.04193855" />
    <g
       id="g839"
       transform="translate(-0.2833803,-5.5268659)">
      <circle
         id="circle814"
         style="fill:none;stroke:#d3d7cf;stroke-width:0.20019241px;stroke-opacity:1"
         r="0.80577439"
         cy="299.0921"
         cx="2.6373901" />
      <circle
         id="circle816"
         style="fill:none;stroke:#d3d7cf;stroke-width:0.20019241px;stroke-opacity:1"
         r="0.80577439"
         cy="299.07712"
         cx="5.5151558" />
      <path
         id="path818"
         d="m 3.7108437,297.12256 c -0.66347,0.006 -0.5509517,-0.0686 -0.9079063,1.07862 -0.2907921,0.91659 -0.2591178,0.81663 -0.2606386,0.88093 -0.00107,0.05 0.039254,0.0895 0.089921,0.0929 0.1053692,-0.0106 0.061049,0.0114 0.4263624,-1.12303 1.3348437,1.40813 0.8340438,1.17979 1.5524078,1.20839 0.9441191,-0.009 1.0208558,0.0491 1.0320645,-0.0892 -0.00129,-0.047 -0.02328,-0.075 -0.6712299,-1.51706 l 0.062079,-0.17072 0.2133968,-0.004 -0.00776,-0.17847 H 4.4441526 c -0.07027,0.0961 0.028453,0.0957 0.3841143,0.17459 l -0.062079,0.1746 -1.5868961,0.004 c 0.1069139,-0.37333 0.046559,-0.35005 0.527672,-0.34919 z m -0.5774061,0.72291 1.5528093,-0.003 -0.4487729,1.2059 z m 1.7400274,0.0716 -0.4405133,1.15635 0.9636227,0.003 z"
         style="fill:#d3d7cf;fill-opacity:1;fill-rule:evenodd;stroke:none;stroke-width:0.00500481"
         inkscape:connector-curvature="0" />
    </g>
  </g>
</svg>
