<?xml version="1.0" encoding="UTF-8" standalone="no"?>
<svg
   xmlns:dc="http://purl.org/dc/elements/1.1/"
   xmlns:cc="http://creativecommons.org/ns#"
   xmlns:rdf="http://www.w3.org/1999/02/22-rdf-syntax-ns#"
   xmlns:svg="http://www.w3.org/2000/svg"
   xmlns="http://www.w3.org/2000/svg"
   xmlns:sodipodi="http://sodipodi.sourceforge.net/DTD/sodipodi-0.dtd"
   xmlns:inkscape="http://www.inkscape.org/namespaces/inkscape"
   width="28.747"
   height="28.747"
   viewBox="0 0 7.6059768 7.6059772"
   version="1.1"
   id="svg4651"
   inkscape:version="1.0.1 (3bc2e813f5, 2020-09-07, custom)"
   sodipodi:docname="beaver-termux.svg">
  <defs
     id="defs4645" />
  <sodipodi:namedview
     id="base"
     pagecolor="#ffffff"
     bordercolor="#666666"
     borderopacity="1.0"
     inkscape:pageopacity="0.0"
     inkscape:pageshadow="2"
     inkscape:zoom="22.4"
     inkscape:cx="1.4406286"
     inkscape:cy="25.907903"
     inkscape:document-units="mm"
     inkscape:current-layer="layer1"
     showgrid="false"
     units="px"
     inkscape:window-width="1886"
     inkscape:window-height="677"
     inkscape:window-x="10"
     inkscape:window-y="711"
     inkscape:window-maximized="0"
     inkscape:document-rotation="0" />
  <metadata
     id="metadata4648">
    <rdf:RDF>
      <cc:Work
         rdf:about="">
        <dc:format>image/svg+xml</dc:format>
        <dc:type
           rdf:resource="http://purl.org/dc/dcmitype/StillImage" />
        <dc:title />
      </cc:Work>
    </rdf:RDF>
  </metadata>
  <g
     inkscape:label="Layer 1"
     inkscape:groupmode="layer"
     id="layer1"
     transform="translate(0,-289.39401)">
    <path
       inkscape:connector-curvature="0"
       d="m 0.695,293.15518 v -2.14132 q 0,-0.11285 0.1000008,-0.16919 l 2.9333323,-0.78328 q 0,-0.006 0.066667,-0.006 0.066668,0 0.066668,0.006 l 2.9333322,0.78328 q 0.1,0.0562 0.1,0.16919 v 4.28265 q 0,0.11274 -0.1,0.16919 l -2.9333322,0.78329 q 0,0.006 -0.066668,0.006 -0.066667,0 -0.066667,-0.006 L 0.7950008,295.4657 Q 0.695,295.4094 0.695,295.29651"
       id="path6-3"
       style="fill:#d3d7cf;fill-opacity:1;stroke:none;stroke-width:0.04333996" />
    <path
       inkscape:connector-curvature="0"
       d="m 0.79223735,293.15966 v -2.07191 q 0,-0.1092 0.0967746,-0.16371 l 2.83870895,-0.75789 q 0,-0.006 0.064517,-0.006 0.064517,0 0.064517,0.006 l 2.838709,0.75789 q 0.096774,0.0544 0.096774,0.16371 v 4.14383 q 0,0.10909 -0.096774,0.16371 l -2.838709,0.7579 q 0,0.006 -0.064517,0.006 -0.064517,0 -0.064517,-0.006 l -2.83870895,-0.7579 q -0.0967746,-0.0545 -0.0967746,-0.16371"
       id="path6"
       style="fill:#56514d;fill-opacity:1;stroke:none;stroke-width:0.04193855" />
    <text
       xml:space="preserve"
       style="font-style:normal;font-weight:normal;font-size:4.17014px;line-height:1.25;font-family:sans-serif;fill:#d3d7cf;fill-opacity:1;stroke:none;stroke-width:0.104254"
       x="1.3711098"
       y="294.49655"
       id="text836"><tspan
         sodipodi:role="line"
         id="tspan834"
         x="1.3711098"
         y="294.49655"
         style="font-style:normal;font-variant:normal;font-weight:normal;font-stretch:normal;font-family:Gidole;-inkscape-font-specification:Gidole;fill:#d3d7cf;fill-opacity:1;stroke-width:0.104254">$#</tspan></text>
  </g>
</svg>
